<svg width="57" height="41" viewBox="0 0 57 41" fill="none" xmlns="http://www.w3.org/2000/svg">
<path d="M27.6912 30.7495C27.9294 31.1138 28.2549 31.413 28.6384 31.6201C29.0219 31.8273 29.4512 31.9358 29.8873 31.9358C30.3235 31.9358 30.7527 31.8273 31.1362 31.6201C31.5197 31.413 31.8452 31.1138 32.0834 30.7495C32.4961 30.1183 32.7158 29.3812 32.7158 28.6277C32.7158 27.8742 32.4961 27.1369 32.0834 26.5057C31.8452 26.1414 31.5197 25.8422 31.1362 25.635C30.7527 25.4278 30.3235 25.3193 29.8873 25.3193C29.4512 25.3193 29.0219 25.4278 28.6384 25.635C28.2549 25.8422 27.9294 26.1414 27.6912 26.5057C27.2785 27.1369 27.0588 27.8742 27.0588 28.6277C27.0588 29.3812 27.2785 30.1183 27.6912 30.7495Z" fill="#D8D8D8"/>
<path d="M32.5741 4.05073C30.3013 4.09509 28.082 4.74609 26.1474 5.93617C22.2113 6.53836 18.6314 8.55357 16.0807 11.6026C13.53 14.6517 12.1841 18.5247 12.296 22.4937C12.186 22.5612 12.089 22.6478 12.0097 22.7496C9.14591 26.4657 5.67315 29.673 1.73796 32.2358C1.49853 32.3917 1.33103 32.6361 1.27228 32.9152C1.21353 33.1943 1.26834 33.4853 1.42467 33.7242C1.58099 33.963 1.82603 34.1299 2.10592 34.1886C2.38581 34.2474 2.67762 34.1929 2.91722 34.0371C6.56897 31.6595 9.84494 28.7525 12.6372 25.4119C13.2427 27.7591 12.9129 30.249 11.717 32.359C10.5211 34.469 8.55214 36.0351 6.22318 36.7288C5.9506 36.812 5.72211 36.9994 5.5876 37.25C5.45309 37.5006 5.42348 37.7941 5.50524 38.0664C5.587 38.3387 5.77348 38.5678 6.02398 38.7035C6.27448 38.8391 6.56864 38.8703 6.84224 38.7905C9.65288 37.9533 12.0391 36.082 13.5171 33.5555C14.9952 31.0291 15.4544 28.0366 14.8018 25.185C14.0831 22.0478 14.4594 18.7599 15.8683 15.8648C17.2773 12.9696 19.6347 10.6404 22.551 9.2619C21.7123 10.4099 21.073 11.6901 20.6599 13.0494C18.0693 21.5767 17.2425 30.5399 18.2298 39.3953C18.2627 39.6775 18.4061 39.9352 18.6289 40.1123C18.8516 40.2893 19.1356 40.3712 19.4187 40.3402C19.7019 40.3091 19.9612 40.1676 20.1401 39.9466C20.319 39.7256 20.403 39.443 20.3736 39.1605C20.1527 37.1841 20.0248 35.1984 19.9904 33.2101C21.7813 34.8833 23.7114 36.4019 25.7599 37.7497C26.641 38.3294 27.6733 38.6385 28.7289 38.6385C29.7845 38.6385 30.8169 38.3294 31.698 37.7497C34.7691 35.728 37.5697 33.3249 40.0325 30.5983C39.9739 32.2662 39.8967 33.9335 39.801 35.5997C39.7915 35.88 39.8923 36.153 40.0819 36.3602C40.2715 36.5675 40.5349 36.6926 40.8157 36.7089C41.0966 36.7252 41.3727 36.6314 41.5852 36.4475C41.7976 36.2637 41.9296 36.0045 41.9529 35.7249C42.006 34.8014 42.0534 33.8775 42.0952 32.9534C43.0599 34.3765 44.2672 35.6202 45.6623 36.6278C45.8941 36.7945 46.1828 36.8627 46.4649 36.8175C46.7471 36.7723 46.9998 36.6172 47.1676 36.3865C47.3354 36.1558 47.4046 35.8683 47.3601 35.5868C47.3155 35.3053 47.1608 35.0529 46.93 34.885C44.696 33.2718 43.0552 30.9718 42.2595 28.3384C42.3847 23.3484 42.3452 18.3557 42.1409 13.3683C42.06 11.3943 41.237 9.52298 39.8356 8.12637C38.4342 6.72977 36.557 5.91017 34.5772 5.83052C34.4356 5.82474 34.2943 5.84682 34.1613 5.8955C34.0282 5.94417 33.9061 6.01849 33.8019 6.11422C33.6977 6.20995 33.6134 6.32525 33.5539 6.45346C33.4943 6.58168 33.4607 6.72022 33.4549 6.8614C33.4491 7.00257 33.4712 7.14364 33.52 7.27628C33.5689 7.40892 33.6434 7.5307 33.7394 7.63462C33.8354 7.73854 33.951 7.82249 34.0796 7.88186C34.2082 7.94123 34.3472 7.97477 34.4888 7.98056C35.9271 8.03848 37.2909 8.63399 38.3091 9.64851C39.3274 10.663 39.9255 12.0223 39.9847 13.4563C40.0094 14.0638 40.0317 14.6714 40.0515 15.279C38.5385 14.9254 36.976 14.8331 35.4317 15.006C35.0181 15.0524 34.6179 15.1801 34.2543 15.3819C33.8906 15.5838 33.5707 15.8557 33.3132 16.1817C31.9139 15.6642 30.3748 15.6642 28.9755 16.1817C28.718 15.8557 28.3982 15.584 28.0346 15.3822C27.6709 15.1803 27.2707 15.0525 26.8572 15.006C25.3186 14.8337 23.7619 14.9245 22.254 15.2748C22.4015 14.7395 22.556 14.2063 22.7174 13.675C23.3637 11.5465 24.6695 9.67676 26.4474 8.33394C28.2254 6.99111 30.3842 6.24411 32.6142 6.20027C32.8991 6.19316 33.1697 6.07392 33.3666 5.86847C33.5636 5.66302 33.671 5.3881 33.6653 5.10393C33.6596 4.81976 33.5413 4.54947 33.3362 4.35204C33.1312 4.1546 32.8591 4.04648 32.5741 4.05073ZM31.2516 17.9458C31.7292 17.9575 32.2011 18.0527 32.6457 18.2271C32.6589 18.6236 32.7475 19.0139 32.9068 19.3775C33.5059 20.7465 34.5452 21.8778 35.8607 22.5926C37.1761 23.3074 38.6928 23.5652 40.1714 23.3251C40.1694 24.6032 40.1564 25.8809 40.1326 27.1588C37.4151 30.5818 34.1682 33.5516 30.5138 35.9563C29.9852 36.3041 29.3658 36.4894 28.7324 36.4894C28.0991 36.4894 27.4796 36.3041 26.951 35.9563C24.4355 34.3013 22.1095 32.3761 20.0148 30.2157C20.0885 27.7698 20.3036 25.3304 20.6591 22.9093C22.2892 23.5745 24.1156 23.5774 25.7479 22.9175C27.3801 22.2575 28.6886 20.9869 29.3936 19.3775C29.5529 19.0139 29.6415 18.6236 29.6547 18.2271C30.1626 18.0279 30.7061 17.9322 31.2516 17.9458Z" fill="#D8D8D8"/>
<path d="M11.3749 10.4917C13.5965 7.1328 16.6581 4.40939 20.2575 2.59043C23.857 0.771465 27.8698 -0.0802623 31.9002 0.119254C32.1855 0.133799 32.4533 0.260618 32.6449 0.471889C32.8364 0.68316 32.9361 0.961629 32.9219 1.2461C32.9078 1.53057 32.781 1.79797 32.5694 1.98931C32.3578 2.18066 32.0787 2.28047 31.7934 2.26681C28.1375 2.08581 24.4975 2.85839 21.2325 4.50835C17.9674 6.1583 15.1903 8.62851 13.1751 11.6754C8.94662 18.0684 5.25994 24.8018 2.15331 31.8056C2.03655 32.0646 1.82173 32.2671 1.55577 32.3688C1.28981 32.4704 0.99432 32.4628 0.733835 32.3479C0.473351 32.2331 0.26904 32.0201 0.165523 31.7555C0.0620057 31.4909 0.0676951 31.1963 0.181348 30.9359C3.33642 23.8229 7.08052 16.9845 11.3749 10.4917Z" fill="#D8D8D8"/>
<path d="M48.5412 19.1314C48.0031 16.3187 47.508 13.4979 47.056 10.6702C46.8477 9.36694 46.3414 8.12914 45.5763 7.05231C44.5529 5.61193 43.1912 4.44336 41.6103 3.64895C40.0293 2.85455 38.2773 2.45833 36.5073 2.49508C36.2215 2.5015 35.9448 2.39448 35.7381 2.1975C35.5314 2.00051 35.4116 1.72988 35.4051 1.44486C35.3986 1.15984 35.506 0.88372 35.7035 0.677593C35.901 0.471467 36.1726 0.352052 36.4584 0.345541C38.5805 0.301499 40.6812 0.776576 42.5767 1.72905C44.4721 2.68153 46.1048 4.08243 47.3318 5.8094C48.2881 7.15539 48.921 8.70268 49.1814 10.3317C49.63 13.1379 50.1213 15.9371 50.6553 18.7284C50.9596 20.3195 51.6284 21.8191 52.6095 23.1101C53.5906 24.4011 54.8575 25.4487 56.3113 26.1712C56.5671 26.2985 56.7618 26.5216 56.8525 26.7919C56.9432 27.0623 56.9225 27.3574 56.795 27.6125C56.6675 27.8676 56.4435 28.0619 56.1725 28.1524C55.9014 28.2429 55.6053 28.2224 55.3494 28.0954C53.5984 27.2251 52.0725 25.9634 50.8909 24.4086C49.7093 22.8537 48.9078 21.0477 48.5412 19.1314Z" fill="#D8D8D8"/>
<path d="M41.8368 8.50192C43.1541 13.029 44.1187 17.6507 44.7221 22.3259C45.0819 25.1144 46.2651 27.7332 48.1214 29.8495C49.9776 31.9658 52.423 33.4842 55.1467 34.2113C55.4219 34.2818 55.7138 34.2411 55.959 34.0982C56.2043 33.9553 56.3831 33.7216 56.4565 33.448C56.53 33.1744 56.4921 32.8828 56.3512 32.6368C56.2104 32.3909 55.9778 32.2104 55.7041 32.1344C53.3935 31.5176 51.3189 30.2296 49.7442 28.4342C48.1695 26.6389 47.1657 24.4172 46.8604 22.0516C46.2429 17.2665 45.2556 12.5362 43.9073 7.90278C43.4649 6.38244 42.4773 5.07731 41.1323 4.23607C39.7874 3.39484 38.1792 3.07631 36.6139 3.34085C36.332 3.38852 36.0806 3.54585 35.9151 3.77829C35.7496 4.01073 35.6834 4.2992 35.7312 4.58028C35.7789 4.86135 35.9367 5.11202 36.1698 5.27712C36.4029 5.44221 36.6922 5.5082 36.9741 5.46062C38.0176 5.28427 39.0898 5.49671 39.9864 6.05753C40.883 6.61834 41.5418 7.48836 41.8368 8.50192Z" fill="#D8D8D8"/>
</svg>
