<svg width="23" height="23" viewBox="0 0 23 23" fill="none" xmlns="http://www.w3.org/2000/svg">
<path d="M10.345 16.4787C10.4393 16.479 10.5325 16.4582 10.6177 16.4178C10.7028 16.3774 10.7779 16.3184 10.8373 16.2452L13.8855 12.4586C13.9783 12.3456 14.0291 12.204 14.0291 12.0578C14.0291 11.9116 13.9783 11.77 13.8855 11.6571L10.73 7.87049C10.6229 7.74161 10.4689 7.66056 10.3021 7.64517C10.1352 7.62979 9.96903 7.68132 9.84015 7.78844C9.71127 7.89557 9.63022 8.0495 9.61484 8.21638C9.59945 8.38326 9.65099 8.54941 9.75811 8.67829L12.5791 12.061L9.85277 15.4437C9.7756 15.5363 9.72658 15.6491 9.71151 15.7687C9.69644 15.8883 9.71595 16.0098 9.76774 16.1187C9.81952 16.2275 9.90141 16.3193 10.0037 16.3831C10.106 16.4469 10.2245 16.4801 10.345 16.4787Z" fill="#D8D8D8" fill-opacity="0.61"/>
<rect opacity="0.465541" width="17.9512" height="16.2683" rx="5" transform="matrix(-1 0 0 1 20.1951 3.92683)" fill="white" fill-opacity="0.62"/>
</svg>
