<svg width="10" height="17" viewBox="0 0 10 17" fill="none" xmlns="http://www.w3.org/2000/svg">
<path d="M7.6972 16.939C7.51684 16.9397 7.33862 16.8999 7.17566 16.8225C7.0127 16.7452 6.86913 16.6324 6.7555 16.4923L0.924156 9.24844C0.746581 9.03241 0.649506 8.76143 0.649506 8.48179C0.649506 8.20215 0.746581 7.93117 0.924156 7.71514L6.96074 0.471241C7.16567 0.224687 7.46015 0.069638 7.77939 0.040204C8.09864 0.0107699 8.4165 0.109362 8.66306 0.31429C8.90961 0.519218 9.06466 0.813697 9.09409 1.13294C9.12353 1.45219 9.02494 1.77005 8.82001 2.01661L3.4233 8.48783L8.63891 14.959C8.78654 15.1363 8.88033 15.3521 8.90916 15.5809C8.93799 15.8098 8.90066 16.0421 8.80159 16.2504C8.70253 16.4587 8.54586 16.6342 8.35014 16.7563C8.15443 16.8783 7.92784 16.9417 7.6972 16.939Z" fill="#7C2BFF"/>
</svg>
