<svg width="10" height="17" viewBox="0 0 10 17" fill="none" xmlns="http://www.w3.org/2000/svg">
<path d="M7.69717 16.939C7.51681 16.9396 7.33859 16.8998 7.17563 16.8225C7.01267 16.7452 6.8691 16.6324 6.75547 16.4923L0.924125 9.24841C0.746551 9.03238 0.649475 8.76141 0.649475 8.48177C0.649475 8.20212 0.746551 7.93115 0.924125 7.71512L6.96071 0.471218C7.16564 0.224664 7.46012 0.0696152 7.77936 0.0401811C8.09861 0.010747 8.41647 0.109339 8.66303 0.314267C8.90958 0.519195 9.06463 0.813674 9.09406 1.13292C9.1235 1.45217 9.02491 1.77003 8.81998 2.01658L3.42327 8.4878L8.63888 14.959C8.78651 15.1362 8.8803 15.352 8.90913 15.5809C8.93796 15.8097 8.90063 16.042 8.80156 16.2503C8.70249 16.4586 8.54583 16.6342 8.35011 16.7562C8.1544 16.8783 7.92781 16.9417 7.69717 16.939Z" fill="#AAA8AC"/>
</svg>
