<svg width="38" height="58" viewBox="0 0 38 58" fill="none" xmlns="http://www.w3.org/2000/svg">
<path d="M36.9091 6.0115C36.8048 4.92739 36.6823 3.94083 36.5508 3.09111C36.4169 2.23991 36.2764 1.53236 36.1154 0.966855L35.8394 0H34.8332H2.16111L1.8847 0.966855C1.72327 1.53236 1.58315 2.23991 1.44925 3.09111C1.05322 5.63506 0.745771 9.44143 0.744751 13.2975C0.744751 14.4526 0.772732 15.6108 0.83515 16.7402C1.07508 21.001 2.47456 24.8012 3.75361 28.1857C4.39501 29.8784 5.00854 31.4682 5.45261 32.9439C5.89792 34.4203 6.16809 35.7766 6.16707 36.9997C6.16707 42.6665 6.16707 50.9974 6.16707 50.9974C6.16594 52.9266 6.95245 54.6858 8.21724 55.949C9.48043 57.2137 11.2396 58.0008 13.1697 58H24.8306C26.7598 58.0008 28.519 57.2138 29.7822 55.949C31.0482 54.6858 31.8335 52.9266 31.8335 50.9974C31.8335 50.9974 31.8335 42.6665 31.8335 36.9997C31.8321 35.7765 32.1019 34.4203 32.548 32.9439C33.2117 30.7281 34.2649 28.2637 35.2091 25.5686C36.1518 22.8727 36.9872 19.935 37.1648 16.7404C37.2266 15.6109 37.2554 14.4528 37.2554 13.2976C37.2553 10.7281 37.1178 8.17664 36.9091 6.0115ZM34.5021 16.5929C34.2957 20.3478 33.0295 23.8797 31.7526 27.2409C31.1161 28.9222 30.4811 30.5595 29.9942 32.175C29.5084 33.7907 29.1675 35.3903 29.1668 36.9997C29.1668 42.6665 29.1668 50.9974 29.1668 50.9974C29.166 52.1986 28.6833 53.2752 27.8965 54.0636C27.1076 54.8499 26.0322 55.3329 24.8306 55.3337H13.1696C11.9679 55.3329 10.8921 54.8499 10.1029 54.0636C9.31595 53.2752 8.83405 52.1986 8.83326 50.9974C8.83326 50.9974 8.83326 42.6665 8.83326 36.9997C8.83179 35.3902 8.49081 33.7906 8.00619 32.175C7.27519 29.7529 6.21227 27.2771 5.30851 24.6887C4.40204 22.0987 3.6537 19.4105 3.49794 16.593C3.43869 15.5202 3.41139 14.4097 3.41139 13.2976C3.41139 10.8233 3.54529 8.346 3.74557 6.26559C3.84537 5.22691 3.96149 4.28724 4.08428 3.50334C4.13163 3.2002 4.18001 2.91971 4.22838 2.66721H33.7719C33.8196 2.91971 33.8686 3.2002 33.9155 3.50334C34.2852 5.86049 34.5899 9.58971 34.5883 13.2977C34.5883 14.4096 34.5618 15.5202 34.5021 16.5929Z" fill="#D8D8D8"/>
<path d="M12.8138 15.4445C12.9276 19.0226 13.673 22.4525 14.3946 25.7697C15.0798 28.9236 15.7262 31.9219 15.8468 35.0002H14.8421C14.6558 31.9219 13.6526 28.9243 12.5924 25.7697C11.4784 22.4525 10.3271 19.0226 10.1509 15.4445C10.0984 14.374 10.0761 13.29 10.0768 12.2219H6.08482C6.06284 13.6092 6.08221 15.0387 6.16004 16.444C6.35919 20.0228 7.66101 23.4519 8.91968 26.7692C10.2469 30.2648 11.4998 33.566 11.4998 36.9998V50.9975C11.4998 51.9183 12.2482 52.6667 13.1694 52.6667H24.8304C25.7511 52.6667 26.4999 51.9183 26.4999 50.9975V36.9997C26.4999 33.566 27.7533 30.2647 29.0797 26.769C30.3388 23.4518 31.6397 20.0227 31.8386 16.4439C31.9172 15.0385 31.9354 13.609 31.915 12.2218H12.7708C12.7703 13.2915 12.7799 14.3727 12.8138 15.4445ZM24.5885 26.6663C24.5885 27.4034 23.9918 28.0006 23.255 28.0006C22.5182 28.0006 21.9218 27.4034 21.9218 26.6663C21.9218 25.9308 22.5182 25.3327 23.255 25.3327C23.9918 25.3327 24.5885 25.9308 24.5885 26.6663ZM22.5886 16.0002C23.3245 16.0002 23.9217 16.5974 23.9217 17.3337C23.9217 18.0699 23.3245 18.6665 22.5886 18.6665C21.8523 18.6665 21.2551 18.0699 21.2551 17.3337C21.2551 16.5974 21.8523 16.0002 22.5886 16.0002ZM20.2553 33.3332C20.8075 33.3332 21.2551 33.7815 21.2551 34.3334C21.2551 34.8853 20.8076 35.3329 20.2553 35.3329C19.7027 35.3329 19.2551 34.8853 19.2551 34.3334C19.2552 33.7815 19.7027 33.3332 20.2553 33.3332ZM20.2553 45.0002C20.8075 45.0002 21.2551 45.4478 21.2551 45.9995C21.2551 46.5522 20.8076 46.9997 20.2553 46.9997C19.7027 46.9997 19.2551 46.5522 19.2551 45.9995C19.2552 45.4478 19.7027 45.0002 20.2553 45.0002ZM16.2554 41.6664C16.2554 42.219 15.8075 42.6666 15.2549 42.6666C14.7027 42.6666 14.2556 42.2191 14.2556 41.6664C14.2556 41.1145 14.7027 40.6663 15.2549 40.6663C15.8075 40.6662 16.2554 41.1145 16.2554 41.6664Z" fill="#D8D8D8"/>
</svg>
