<svg width="21" height="21" viewBox="0 0 21 21" fill="none" xmlns="http://www.w3.org/2000/svg">
<path d="M6.07606 6.54056C6.60127 6.54056 7.00527 6.13655 7.00527 5.61135V2.90432C7.00527 2.41951 6.60127 1.97511 6.07606 1.97511C5.55086 1.97511 5.14686 2.37911 5.14686 2.90432V5.61135C5.14686 6.13655 5.55086 6.54056 6.07606 6.54056ZM13.7119 11.8736H15.6512C15.8936 11.8736 16.0956 11.6716 16.0956 11.4292V10.1768C16.0956 9.9344 15.8936 9.73239 15.6512 9.73239H13.7119C13.4695 9.73239 13.2675 9.9344 13.2675 10.1768V11.4292C13.2271 11.6716 13.4291 11.8736 13.7119 11.8736ZM13.7119 15.6311H15.6512C15.8936 15.6311 16.0956 15.4291 16.0956 15.1864V13.934C16.0956 13.6916 15.8936 13.4896 15.6512 13.4896H13.7119C13.4695 13.4896 13.2675 13.6916 13.2675 13.934V15.1864C13.2271 15.4291 13.4291 15.6311 13.7119 15.6311ZM15.8532 5.61135C15.8532 5.69215 15.8128 5.73255 15.8532 5.77295V5.61135ZM14.8836 6.54056C15.4088 6.54056 15.8128 6.13655 15.8128 5.61135V2.90432C15.8128 2.41951 15.4088 1.97511 14.8836 1.97511C14.3583 1.97511 13.9543 2.37911 13.9543 2.90432V5.61135C13.9947 6.13655 14.3988 6.54056 14.8836 6.54056ZM9.5101 11.8736H11.4493C11.6917 11.8736 11.8937 11.6716 11.8937 11.4292V10.1768C11.8937 9.9344 11.6917 9.73239 11.4493 9.73239H9.5101C9.2677 9.73239 9.06569 9.9344 9.06569 10.1768V11.4292C9.06569 11.6716 9.2677 11.8736 9.5101 11.8736ZM5.34865 11.8736H7.28808C7.53048 11.8736 7.73248 11.6716 7.73248 11.4292V10.1768C7.73248 9.9344 7.53048 9.73239 7.28808 9.73239H5.34865C5.10625 9.73239 4.90425 9.9344 4.90425 10.1768V11.4292C4.86385 11.6716 5.10625 11.8736 5.34865 11.8736ZM5.34865 15.6311H7.28808C7.53048 15.6311 7.73248 15.4291 7.73248 15.1864V13.934C7.73248 13.6916 7.53048 13.4896 7.28808 13.4896H5.34865C5.10625 13.4896 4.90425 13.6916 4.90425 13.934V15.1864C4.86385 15.4291 5.10625 15.6311 5.34865 15.6311ZM9.5101 15.6311H11.4493C11.6917 15.6311 11.8937 15.4291 11.8937 15.1864V13.934C11.8937 13.6916 11.6917 13.4896 11.4493 13.4896H9.5101C9.2677 13.4896 9.06569 13.6916 9.06569 13.934V15.1864C9.06569 15.4291 9.2677 15.6311 9.5101 15.6311Z" fill="#D8D8D8"/>
<path d="M17.3886 3.63173H16.419V5.61155C16.419 6.41956 15.7321 7.06597 14.9241 7.06597C14.1161 7.06597 13.4293 6.41956 13.4293 5.61155V3.63173H7.57086V5.61155C7.57086 6.41956 6.88405 7.06597 6.07604 7.06597C5.26783 7.06597 4.58123 6.41956 4.58123 5.61155V3.63173H3.61141C2.7226 3.63173 2.0358 4.35894 2.0358 5.20755V17.4897C2.0358 18.3381 2.7226 19.0249 3.61141 19.0249H17.3886C18.237 19.0249 18.9642 18.3381 18.9642 17.4897V5.20755C18.9642 4.35894 18.237 3.63173 17.3886 3.63173ZM17.5906 17.4895C17.5906 17.6107 17.5098 17.6915 17.3886 17.6915H3.61141C3.49021 17.6915 3.40941 17.6107 3.40941 17.4895V7.75277H17.5906V17.4895Z" fill="#D8D8D8"/>
</svg>
