<svg width="45" height="59" viewBox="0 0 45 59" fill="none" xmlns="http://www.w3.org/2000/svg">
<path d="M15.2 0.52002V4.30002C15.2 6.37268 16.9074 8.08002 18.98 8.08002H20.24V18.2019C17.5256 18.3737 14.9605 19.0924 12.6456 20.2272C12.4969 20.2999 12.364 20.4012 12.2545 20.5253C12.145 20.6493 12.061 20.7938 12.0073 20.9503C11.9536 21.1068 11.9312 21.2724 11.9415 21.4376C11.9518 21.6028 11.9945 21.7643 12.0672 21.9129C12.14 22.0616 12.2412 22.1945 12.3653 22.304C12.4894 22.4135 12.6338 22.4975 12.7903 22.5512C12.9469 22.6049 13.1125 22.6273 13.2776 22.617C13.4428 22.6067 13.6043 22.564 13.753 22.4913C14.965 21.8971 16.2525 21.4398 17.5945 21.1304C16.8854 25.5692 16.46 31.615 16.46 38.32C16.46 39.1562 16.4913 39.9351 16.5043 40.749C14.7499 40.6888 13.0759 40.598 11.4938 40.4807C11.4757 40.0685 11.45 39.6612 11.4422 39.2429C11.4413 39.0744 11.4066 38.9079 11.3402 38.7531C11.2739 38.5983 11.1771 38.4584 11.0558 38.3416C10.9344 38.2249 10.7909 38.1336 10.6336 38.0732C10.4764 38.0129 10.3087 37.9847 10.1403 37.9902C9.97484 37.9957 9.81204 38.0337 9.66124 38.102C9.51044 38.1704 9.37459 38.2678 9.26146 38.3887C9.14832 38.5096 9.06013 38.6516 9.00191 38.8066C8.9437 38.9616 8.9166 39.1266 8.92217 39.2921C8.92817 39.6138 8.94983 39.926 8.96154 40.2445C7.07815 40.0567 5.37822 39.8355 3.924 39.5776C3.89465 39.1606 3.86002 38.7446 3.86002 38.32C3.86002 38.1553 3.8845 37.926 3.89693 37.6137C3.90619 37.4452 3.88151 37.2766 3.82435 37.1178C3.76719 36.959 3.67872 36.8133 3.56419 36.6894C3.44965 36.5654 3.31139 36.4657 3.1576 36.3963C3.00382 36.3268 2.83764 36.2889 2.66892 36.2848C2.33515 36.2769 2.01189 36.4018 1.77011 36.632C1.52833 36.8623 1.38781 37.1791 1.37939 37.5128C1.37166 37.7071 1.34002 37.9732 1.34002 38.32C1.34002 41.2636 1.98855 44.0533 3.12666 46.5765C3.16514 46.7029 3.22328 46.8225 3.29892 46.9308C5.30267 51.1497 8.71973 54.5572 12.9458 56.5482C13.013 56.5892 13.0838 56.6238 13.1574 56.6515C15.7033 57.8146 18.5224 58.48 21.5 58.48C24.3129 58.48 26.9953 57.8987 29.4292 56.8558C29.586 56.794 29.7288 56.7013 29.8492 56.5833C29.9696 56.4653 30.0651 56.3243 30.13 56.1688C30.195 56.0132 30.228 55.8462 30.2272 55.6776C30.2265 55.509 30.1919 55.3423 30.1255 55.1873C30.0591 55.0324 29.9623 54.8923 29.8409 54.7754C29.7194 54.6585 29.5757 54.5672 29.4183 54.5068C29.2609 54.4465 29.093 54.4183 28.9245 54.424C28.756 54.4297 28.5904 54.4692 28.4374 54.5401C27.4686 54.9552 26.4512 55.2743 25.4031 55.5121C25.6299 54.0929 25.8098 52.4328 25.974 50.7158C27.1201 50.6134 28.2439 50.479 29.3307 50.3048C29.4967 50.2816 29.6564 50.2255 29.8005 50.1398C29.9445 50.0541 30.07 49.9406 30.1696 49.8058C30.2693 49.671 30.341 49.5177 30.3807 49.3549C30.4203 49.192 30.4271 49.0229 30.4005 48.8574C30.374 48.6919 30.3148 48.5334 30.2262 48.3911C30.1377 48.2488 30.0216 48.1255 29.8849 48.0286C29.7481 47.9317 29.5934 47.8631 29.4298 47.8267C29.2662 47.7903 29.097 47.7869 28.932 47.8168C28.0446 47.959 27.1273 48.0691 26.1955 48.1613C26.3059 46.6039 26.3953 44.9796 26.4514 43.2714C28.5723 43.2017 30.5894 43.0891 32.4709 42.9367C32.7164 42.9853 32.9709 42.9596 33.2018 42.8629C35.1869 42.6875 37.0635 42.4845 38.6724 42.228C38.4969 42.9839 38.2897 43.7285 38.0228 44.4478C37.9612 44.6037 37.9314 44.7704 37.9351 44.9381C37.9388 45.1057 37.9759 45.2709 38.0443 45.424C38.1127 45.5771 38.2109 45.715 38.3332 45.8297C38.4556 45.9444 38.5996 46.0335 38.7568 46.0918C38.914 46.1501 39.0813 46.1764 39.2488 46.1692C39.4163 46.1621 39.5807 46.1215 39.7324 46.05C39.8841 45.9785 40.0199 45.8774 40.132 45.7527C40.2441 45.628 40.3302 45.4822 40.3853 45.3238C41.193 43.1469 41.66 40.7905 41.66 38.32C41.66 30.2906 36.933 23.3663 30.1256 20.1263C30.0125 20.0464 29.8869 19.9857 29.754 19.9467C27.5958 18.9734 25.2394 18.3782 22.76 18.224V8.08002H24.02C26.0927 8.08002 27.8 6.37268 27.8 4.30002V0.52002H15.2ZM17.72 3.04002H25.28V4.30002C25.28 5.01196 24.732 5.56002 24.02 5.56002H18.98C18.2681 5.56002 17.72 5.01196 17.72 4.30002V3.04002ZM0.0800171 14.38C0.0800171 14.38 3.30877 18.7853 4.72627 20.616C3.30877 22.4468 0.0800171 26.852 0.0800171 26.852C0.0800171 26.852 4.48525 23.6232 6.31603 22.2107C8.14681 23.6232 12.557 26.852 12.557 26.852C12.557 26.852 9.32444 22.4468 7.91072 20.616C9.32444 18.7853 12.557 14.38 12.557 14.38C12.557 14.38 8.14681 17.6089 6.31603 19.0213C4.48525 17.6089 0.0800171 14.38 0.0800171 14.38ZM21.5 20.68C21.9246 20.68 22.3406 20.7146 22.7576 20.744C23.0145 22.1945 23.2344 23.8893 23.422 25.7668C22.7855 25.7435 22.1492 25.72 21.5 25.72C20.8515 25.72 20.2118 25.7347 19.578 25.7594C19.765 23.8889 19.9841 22.2 20.24 20.7538C20.6584 20.7234 21.0735 20.68 21.5 20.68ZM25.4031 21.1254C26.4499 21.3614 27.4658 21.6801 28.4325 22.0926C29.0367 23.3905 29.5688 24.8556 30.0198 26.4534C28.7159 26.2244 27.3674 26.0431 25.974 25.9218C25.8097 24.2048 25.6299 22.5448 25.4031 21.1254ZM31.9541 24.1253C33.3813 25.1773 34.64 26.4365 35.6922 27.8635C34.7673 27.5526 33.7943 27.2794 32.7883 27.0317C32.5402 26.0249 32.2654 25.051 31.9541 24.1253ZM21.5 28.24C22.2293 28.24 22.9466 28.2604 23.6583 28.2917C23.7763 29.8799 23.8684 31.5621 23.929 33.3243C23.1148 33.3114 22.3365 33.28 21.5 33.28C20.6655 33.28 19.8792 33.3051 19.0711 33.3194C19.1316 31.5596 19.2239 29.8804 19.3418 28.2942C20.0536 28.2614 20.7712 28.24 21.5 28.24ZM26.1955 28.4689C27.7567 28.6214 29.2605 28.8453 30.6842 29.1358C30.9749 30.5588 31.1984 32.0617 31.3512 33.6221C29.7916 33.5114 28.1623 33.4272 26.4514 33.3711C26.3952 31.6586 26.3063 30.0298 26.1955 28.4689ZM6.38002 29.5C6.38002 29.5 7.76334 31.9419 8.64408 33.3342C7.76334 34.6874 6.38002 37.06 6.38002 37.06C6.38002 37.06 8.78662 35.7119 10.16 34.8501C11.5334 35.7119 13.94 37.06 13.94 37.06C13.94 37.06 12.5567 34.6874 11.676 33.3342C12.5567 31.9419 13.94 29.5 13.94 29.5C13.94 29.5 11.5334 30.9173 10.16 31.8182C8.78662 30.9173 6.38002 29.5 6.38002 29.5ZM33.3642 29.7953C34.9631 30.2462 36.4288 30.7806 37.7274 31.3851C38.1404 32.3524 38.4585 33.3694 38.6946 34.417C37.2751 34.1899 35.6153 34.0078 33.8982 33.8436C33.7766 32.4487 33.5938 31.1005 33.3642 29.7953ZM21.5 35.8C22.3516 35.8 23.145 35.8328 23.9733 35.8468C23.9873 36.675 24.02 37.4684 24.02 38.32C24.02 39.1716 23.9873 39.965 23.9733 40.7933C23.145 40.8073 22.3516 40.84 21.5 40.84C20.6484 40.84 19.855 40.8073 19.0268 40.7933C19.0128 39.965 18.98 39.1716 18.98 38.32C18.98 37.4659 19.0127 36.6701 19.0268 35.8394C19.8488 35.8247 20.6523 35.8 21.5 35.8ZM26.4957 35.8911C28.258 35.9515 29.9401 36.0413 31.5283 36.1593C31.5598 36.8718 31.58 37.5899 31.58 38.32C31.58 39.0508 31.536 39.7626 31.5013 40.4783C29.9205 40.5954 28.2485 40.6888 26.4957 40.749C26.5087 39.9351 26.54 39.1562 26.54 38.32C26.54 37.4838 26.5087 36.7049 26.4957 35.8911ZM34.0533 36.3956C35.9308 36.5831 37.6257 36.8052 39.076 37.0625C39.1054 37.4794 39.14 37.8955 39.14 38.32C39.14 38.744 39.1116 39.1615 39.081 39.5776C37.6304 39.8347 35.9342 40.0543 34.0557 40.242C34.0822 39.609 34.1 38.9703 34.1 38.32C34.1 37.67 34.0766 37.0329 34.0533 36.3956ZM4.30545 42.2206C5.72966 42.4486 7.39532 42.6291 9.11904 42.794C9.23972 44.1861 9.4108 45.5391 9.6383 46.8422C8.0385 46.3909 6.5719 45.8573 5.2726 45.2525C4.85976 44.2851 4.54145 43.2682 4.30545 42.2206ZM11.671 43.0155C13.2243 43.1257 14.8455 43.2128 16.5486 43.269C16.6049 44.9815 16.6937 46.6102 16.8045 48.1711C15.2494 48.019 13.7518 47.7958 12.333 47.5067C12.0435 46.0819 11.823 44.5777 11.671 43.0155ZM19.0711 43.3157C19.8852 43.3287 20.6635 43.36 21.5 43.36C22.3362 43.36 23.1151 43.3287 23.929 43.3157C23.8684 45.0781 23.7763 46.76 23.6583 48.3483C22.9473 48.3802 22.2293 48.4 21.5 48.4C20.7707 48.4 20.0534 48.3797 19.3418 48.3483C19.2237 46.76 19.1316 45.0781 19.0711 43.3157ZM31.58 46.008C31.58 46.008 34.8088 50.4132 36.2263 52.244C34.8088 54.0748 31.58 58.48 31.58 58.48C31.58 58.48 35.9853 55.2511 37.816 53.8387C39.6468 55.2524 44.057 58.48 44.057 58.48C44.057 58.48 40.8244 54.0748 39.4107 52.244C40.8232 50.4132 44.057 46.008 44.057 46.008C44.057 46.008 39.6468 49.2369 37.816 50.6493C35.9853 49.2356 31.58 46.008 31.58 46.008ZM7.30533 48.7741C8.2331 49.0861 9.20977 49.3598 10.2191 49.6083C10.4649 50.611 10.7322 51.5875 11.041 52.5098C9.61516 51.4579 8.35663 50.2004 7.30533 48.7741ZM12.9753 50.1842C14.2812 50.4139 15.6303 50.5966 17.026 50.7182C17.1903 52.4353 17.3701 54.0954 17.597 55.5146C16.5502 55.2786 15.5342 54.96 14.5676 54.5474C13.9627 53.248 13.4249 51.7862 12.9753 50.1842ZM19.578 50.8733C20.2146 50.8966 20.8508 50.92 21.5 50.92C22.1477 50.92 22.7876 50.9071 23.422 50.8831C23.2346 52.7567 23.0141 54.4484 22.7576 55.896C22.3408 55.9256 21.9247 55.96 21.5 55.96C21.0755 55.96 20.6594 55.9254 20.2425 55.896C19.9855 54.4459 19.7656 52.7508 19.578 50.8733Z" fill="#D8D8D8"/>
</svg>
