<svg width="52" height="54" viewBox="0 0 52 54" fill="none" xmlns="http://www.w3.org/2000/svg">
<path d="M4.41669 25.8333C4.41669 13.9132 14.0799 4.25 26 4.25C37.9201 4.25 47.5834 13.9132 47.5834 25.8333C47.5834 26.7998 48.3669 27.5833 49.3334 27.5833C50.2998 27.5833 51.0834 26.7998 51.0834 25.8333C51.0834 11.9802 39.8533 0.75 26 0.75C12.1469 0.75 0.916687 11.9802 0.916687 25.8333C0.916687 39.6866 12.1469 50.9167 26 50.9167C26.9665 50.9167 27.75 50.1331 27.75 49.1667C27.75 48.2002 26.9665 47.4167 26 47.4167C14.0799 47.4167 4.41669 37.7534 4.41669 25.8333Z" fill="#D8D8D8"/>
<path fill-rule="evenodd" clip-rule="evenodd" d="M46.6418 29.2234C44.8193 27.5831 42.4887 27.2368 40.4872 27.8463C37.9889 28.607 35.9167 30.8936 35.9167 34V41.2753C35.9167 41.4559 35.7265 41.5735 35.565 41.4926C33.7161 40.5681 31.4679 41.3176 30.5435 43.1665L30.0224 44.2083C29.1015 46.0503 29.6962 48.2898 31.4096 49.432L34.3445 51.3885C36.1652 52.6023 38.3044 53.25 40.4926 53.25H42.3333C47.1657 53.25 51.0833 49.3326 51.0833 44.5V34.9735C51.0833 33.8577 50.6097 32.7944 49.7804 32.0482L46.6418 29.2234ZM41.5066 31.1946C42.4269 30.9144 43.4594 31.0679 44.3006 31.8249L47.4391 34.6496C47.5308 34.7322 47.5833 34.8498 47.5833 34.9735V44.5C47.5833 47.3994 45.2327 49.75 42.3333 49.75H40.4926C38.9953 49.75 37.5318 49.3069 36.286 48.4765L33.3512 46.5197C33.1064 46.3566 33.0215 46.0367 33.1531 45.7735L33.6739 44.7317C33.7338 44.6118 33.8799 44.5632 33.9998 44.6232C36.4883 45.8676 39.4167 44.0578 39.4167 41.2753V34C39.4167 32.5925 40.3246 31.5544 41.5066 31.1946Z" fill="#D8D8D8"/>
<path fill-rule="evenodd" clip-rule="evenodd" d="M17.25 25.8333C17.25 21.0008 21.1675 17.0833 26 17.0833C30.8326 17.0833 34.75 21.0008 34.75 25.8333C34.75 30.6659 30.8326 34.5833 26 34.5833C21.1675 34.5833 17.25 30.6659 17.25 25.8333ZM26 20.5833C23.1006 20.5833 20.75 22.9339 20.75 25.8333C20.75 28.7327 23.1006 31.0833 26 31.0833C28.8994 31.0833 31.25 28.7327 31.25 25.8333C31.25 22.9339 28.8994 20.5833 26 20.5833Z" fill="#D8D8D8"/>
<path d="M11.4167 25.8333C11.4167 17.7792 17.9459 11.25 26 11.25C26.9665 11.25 27.75 10.4665 27.75 9.5C27.75 8.53351 26.9665 7.75 26 7.75C16.0129 7.75 7.91669 15.8462 7.91669 25.8333C7.91669 26.7998 8.7002 27.5833 9.66669 27.5833C10.6332 27.5833 11.4167 26.7998 11.4167 25.8333Z" fill="#D8D8D8"/>
</svg>
