<svg width="50" height="53" viewBox="0 0 50 53" fill="none" xmlns="http://www.w3.org/2000/svg">
<g clip-path="url(#clip0_14_1253)">
<path fill-rule="evenodd" clip-rule="evenodd" d="M23.3691 18.2143C19.0049 14.0348 12.1635 15.9456 6.37486 15.2727C7.32035 12.1327 8.58377 8.71242 9.97519 5.098C11.2056 1.89764 11.218 1.90195 13.5053 2.41522C13.9265 2.5101 14.4054 2.61793 14.8885 2.71714L22.5103 4.28712C22.8943 4.39926 23.1791 4.5761 23.3732 4.81333C23.5714 5.05486 23.6994 5.37404 23.7613 5.77516C23.7242 6.93971 23.7076 8.22934 23.6911 9.57505C23.6581 12.301 23.6209 15.29 23.3691 18.2143ZM34.9463 52.1458C34.199 52.2968 33.4764 51.7835 33.3319 51.0029C33.1874 50.2222 33.6787 49.4674 34.4261 49.3164L40.2353 48.1432L37.7539 35.4712C36.9075 35.5575 36.0941 35.5445 35.322 35.4324C33.6209 35.1865 32.118 34.4749 30.8092 33.3103C27.18 30.0884 25.7679 24.8307 25.1981 19.3443C24.6284 24.8263 23.2163 30.0841 19.5871 33.3103C18.2741 34.4749 16.7712 35.1865 15.0743 35.4324C14.3022 35.5445 13.4929 35.5575 12.6424 35.4712L9.9917 49.0188L15.5739 50.1489C16.3212 50.2998 16.8125 51.0546 16.668 51.8353C16.5235 52.616 15.8009 53.1292 15.0536 52.9783L1.11887 50.1618C0.371553 50.0108 -0.119777 49.256 0.0247317 48.4754C0.16924 47.6947 0.891784 47.1814 1.6391 47.3324L7.2832 48.471L9.94216 34.8976C9.84306 34.8674 9.74397 34.8329 9.64075 34.7984C9.62424 34.794 9.60772 34.7897 9.59121 34.7811C4.13704 32.9264 2.38229 28.8807 2.75388 23.3297C3.1007 18.128 5.3922 11.6065 8.18328 4.34751C10.0247 -0.431465 10.0412 -0.427151 13.9058 0.439792C14.2815 0.526055 14.7109 0.620944 15.2559 0.733086L22.8943 2.30739C22.9149 2.3117 22.9355 2.31601 22.9562 2.32033C23.7531 2.5403 24.3724 2.93711 24.8348 3.49782C24.9711 3.66603 25.0908 3.84287 25.1981 4.03265C25.3014 3.84287 25.4252 3.66172 25.5615 3.49782C26.0239 2.93711 26.6474 2.5403 27.4401 2.32033C27.4607 2.31601 27.4814 2.3117 27.502 2.30739L35.1403 0.733086C35.6853 0.620944 36.1147 0.526055 36.4905 0.439792C40.355 -0.427151 40.3716 -0.431465 42.2089 4.34751C45.0041 11.6065 47.2915 18.128 47.6383 23.3297C48.0099 28.8764 46.2551 32.9264 40.8009 34.7811C40.7844 34.7854 40.7679 34.7897 40.7514 34.7984C40.6523 34.8329 40.5491 34.8631 40.45 34.8976L42.9355 47.5998L48.3567 46.5042C49.104 46.3533 49.8265 46.8666 49.9711 47.6472C50.1156 48.4279 49.6242 49.1827 48.8769 49.3337L34.9463 52.1458ZM30.5945 25.676C30.483 25.3784 30.6234 25.0463 30.9083 24.9299C31.1932 24.8134 31.5111 24.9601 31.6226 25.2577C32.3286 27.1339 33.3071 28.5141 34.521 29.463C35.7308 30.4033 37.1882 30.9251 38.8604 31.0761C39.1659 31.102 39.3889 31.3823 39.3641 31.7015C39.3393 32.0207 39.071 32.2536 38.7654 32.2277C36.891 32.0552 35.2436 31.4643 33.8604 30.3903C32.4855 29.312 31.3831 27.7636 30.5945 25.676ZM27.0685 18.6887C33.3402 15.7342 39.8431 12.5468 43.1833 12.6546C42.3782 10.2608 41.4327 7.72902 40.4211 5.098C39.1907 1.89764 39.1783 1.90195 36.891 2.41522C36.4698 2.5101 35.9909 2.61793 35.5078 2.71714L27.8901 4.28712C27.5062 4.39926 27.2213 4.5761 27.0272 4.81333C26.829 5.05486 26.701 5.37404 26.6391 5.77516C26.6763 6.93971 26.6928 8.22934 26.7093 9.57505C26.7382 12.4476 26.7754 15.6135 27.0685 18.6887ZM20.0991 23.0752C20.1403 22.7604 20.4211 22.5404 20.7225 22.5878C21.0239 22.631 21.2345 22.9242 21.1891 23.2391C20.8794 25.4561 20.1486 27.2288 19.0379 28.6047C17.9273 29.9849 16.4533 30.9553 14.6697 31.5678C14.3806 31.667 14.0668 31.5031 13.9719 31.2012C13.8769 30.8993 14.0338 30.5715 14.3228 30.4723C15.9207 29.9245 17.2254 29.0705 18.1957 27.8628C19.1742 26.6551 19.8183 25.0765 20.0991 23.0752Z" fill="#D8D8D8"/>
</g>
<defs>
<clipPath id="clip0_14_1253">
<rect width="50" height="53" fill="white"/>
</clipPath>
</defs>
</svg>
