<svg width="33" height="32" viewBox="0 0 33 32" fill="none" xmlns="http://www.w3.org/2000/svg">
<path d="M32.1748 13.8561L17.8006 1.32875C17.0938 0.713149 16.0414 0.714349 15.337 1.33115L1.02401 13.8591C-0.276787 14.9979 0.529012 17.1405 2.25761 17.1405C3.29141 17.1405 4.12961 17.9787 4.12961 19.0131V29.9511C4.12961 30.9855 4.96841 31.8231 6.00221 31.8231H12.5632V22.2369C12.5632 21.6519 13.0366 21.1785 13.621 21.1785H19.5808C20.1652 21.1785 20.6392 21.6519 20.6392 22.2369V31.8237H26.8702C27.9046 31.8237 28.7428 30.9861 28.7428 29.9517V19.0137C28.7428 17.9793 29.581 17.1411 30.6148 17.1411H30.9448C32.6752 17.1399 33.4798 14.9931 32.1748 13.8561Z" fill="#D8D8D8"/>
</svg>
