<svg width="62" height="30" viewBox="0 0 62 30" fill="none" xmlns="http://www.w3.org/2000/svg">
<path d="M1.75 6.33701C0.921 6.33701 0.25 7.00801 0.25 7.83701V22.164C0.25 22.992 0.921 23.664 1.75 23.664C2.579 23.664 3.25 22.992 3.25 22.164V7.83701C3.25 7.00801 2.579 6.33701 1.75 6.33701Z" fill="#D8D8D8"/>
<path d="M10.107 0.0690002C9.27799 0.0690002 8.60699 0.74 8.60699 1.569V28.432C8.60699 29.26 9.27799 29.932 10.107 29.932C10.936 29.932 11.607 29.26 11.607 28.432V1.569C11.607 0.74 10.936 0.0690002 10.107 0.0690002Z" fill="#D8D8D8"/>
<path d="M18.464 5.342C17.635 5.342 16.964 6.013 16.964 6.842V23.158C16.964 23.986 17.635 24.658 18.464 24.658C19.293 24.658 19.964 23.986 19.964 23.158V6.842C19.964 6.014 19.293 5.342 18.464 5.342Z" fill="#D8D8D8"/>
<path d="M26.821 10.217C25.992 10.217 25.321 10.888 25.321 11.717V18.283C25.321 19.111 25.992 19.783 26.821 19.783C27.65 19.783 28.321 19.111 28.321 18.283V11.717C28.321 10.888 27.65 10.217 26.821 10.217Z" fill="#D8D8D8"/>
<path d="M43.536 2.05901C42.708 2.05901 42.036 2.73001 42.036 3.55901V26.441C42.036 27.269 42.708 27.941 43.536 27.941C44.364 27.941 45.036 27.269 45.036 26.441V3.55901C45.036 2.73001 44.364 2.05901 43.536 2.05901Z" fill="#D8D8D8"/>
<path d="M35.179 8.72501C34.351 8.72501 33.679 9.39601 33.679 10.225V19.776C33.679 20.604 34.351 21.276 35.179 21.276C36.007 21.276 36.679 20.604 36.679 19.776V10.225C36.679 9.39601 36.007 8.72501 35.179 8.72501Z" fill="#D8D8D8"/>
<path d="M51.893 7.23199C51.065 7.23199 50.393 7.90299 50.393 8.73199V21.268C50.393 22.096 51.065 22.768 51.893 22.768C52.721 22.768 53.393 22.096 53.393 21.268V8.73199C53.393 7.90299 52.721 7.23199 51.893 7.23199Z" fill="#D8D8D8"/>
<path d="M60.25 11.51C59.422 11.51 58.75 12.181 58.75 13.01V16.99C58.75 17.818 59.422 18.49 60.25 18.49C61.078 18.49 61.75 17.818 61.75 16.99V13.01C61.75 12.181 61.078 11.51 60.25 11.51Z" fill="#D8D8D8"/>
</svg>
