<svg width="64" height="80" viewBox="0 0 64 80" fill="none" xmlns="http://www.w3.org/2000/svg">
<g clip-path="url(#clip0_14_1269)">
<path d="M2.75 23.337C1.921 23.337 1.25 24.008 1.25 24.837V39.164C1.25 39.992 1.921 40.664 2.75 40.664C3.579 40.664 4.25 39.992 4.25 39.164V24.837C4.25 24.008 3.579 23.337 2.75 23.337Z" fill="#D8D8D8"/>
<path d="M11.107 17.069C10.278 17.069 9.60699 17.74 9.60699 18.569V45.432C9.60699 46.26 10.278 46.932 11.107 46.932C11.936 46.932 12.607 46.26 12.607 45.432V18.569C12.607 17.74 11.936 17.069 11.107 17.069Z" fill="#D8D8D8"/>
<path d="M19.464 22.342C18.635 22.342 17.964 23.013 17.964 23.842V40.158C17.964 40.986 18.635 41.658 19.464 41.658C20.293 41.658 20.964 40.986 20.964 40.158V23.842C20.964 23.014 20.293 22.342 19.464 22.342Z" fill="#D8D8D8"/>
<path d="M27.821 27.217C26.992 27.217 26.321 27.888 26.321 28.717V35.283C26.321 36.111 26.992 36.783 27.821 36.783C28.65 36.783 29.321 36.111 29.321 35.283V28.717C29.321 27.888 28.65 27.217 27.821 27.217Z" fill="#D8D8D8"/>
<path d="M44.536 19.059C43.708 19.059 43.036 19.73 43.036 20.559V43.441C43.036 44.269 43.708 44.941 44.536 44.941C45.364 44.941 46.036 44.269 46.036 43.441V20.559C46.036 19.73 45.364 19.059 44.536 19.059Z" fill="#D8D8D8"/>
<path d="M36.179 25.725C35.351 25.725 34.679 26.396 34.679 27.225V36.776C34.679 37.604 35.351 38.276 36.179 38.276C37.007 38.276 37.679 37.604 37.679 36.776V27.225C37.679 26.396 37.007 25.725 36.179 25.725Z" fill="#D8D8D8"/>
<path d="M52.893 24.232C52.065 24.232 51.393 24.903 51.393 25.732V38.268C51.393 39.096 52.065 39.768 52.893 39.768C53.721 39.768 54.393 39.096 54.393 38.268V25.732C54.393 24.903 53.721 24.232 52.893 24.232Z" fill="#D8D8D8"/>
<path d="M61.25 28.51C60.422 28.51 59.75 29.181 59.75 30.01V33.99C59.75 34.818 60.422 35.49 61.25 35.49C62.078 35.49 62.75 34.818 62.75 33.99V30.01C62.75 29.181 62.078 28.51 61.25 28.51Z" fill="#D8D8D8"/>
</g>
<defs>
<clipPath id="clip0_14_1269">
<rect width="64" height="80" fill="white"/>
</clipPath>
</defs>
</svg>
