<svg width="52" height="60" viewBox="0 0 52 60" fill="none" xmlns="http://www.w3.org/2000/svg">
<path d="M8.68876 0.519976C6.01996 0.571277 3.41284 1.82675 1.73685 4.13799C-1.08546 8.03062 -0.185838 13.4608 3.74375 16.2563C3.89935 16.367 4.05722 16.4514 4.21738 16.5506C7.80823 13.7529 13.6641 5.67257 14.4606 2.54765C14.2968 2.41222 14.139 2.2753 13.9629 2.15007C12.3664 1.01436 10.5148 0.484877 8.68876 0.519976ZM15.2072 3.2315C14.228 7.53222 8.94348 13.6744 5.43757 17.1867C7.28164 17.9623 9.30389 18.0739 11.1693 17.5684C11.1732 17.5643 11.1813 17.5645 11.1853 17.5604C12.3687 16.3699 13.6802 14.8069 14.7255 13.3619C15.7779 11.907 16.8599 10.2135 17.5914 8.69429C17.4733 6.69317 16.6572 4.74371 15.2072 3.2315ZM25.5307 8.75791C24.9967 8.77112 24.4744 9.03691 24.166 9.51332L21.541 13.5687C21.2763 13.9775 20.3993 14.7226 20.5215 15.159C20.627 15.5362 21.5053 15.9741 21.8621 16.2007L25.2417 17.6399C26.0112 18.1287 26.6989 17.9092 27.1924 17.1469L29.8094 13.0995C30.0294 12.7596 30.3736 12.28 30.3232 11.9068C30.2605 11.443 29.7381 11.0962 29.3117 10.8253L26.4619 9.01237C26.1733 8.82906 25.8511 8.74999 25.5307 8.75791ZM18.346 9.23501C18.3439 9.23919 18.34 9.24652 18.3379 9.25092L18.354 9.28272C18.0654 9.8324 17.7494 10.3949 17.4148 10.9605C17.4102 10.9689 17.4035 10.9761 17.3987 10.9844C16.8147 11.9621 16.1673 12.9423 15.448 13.9344C14.7395 14.9116 14.0022 15.8291 13.2645 16.6778C13.2606 16.6801 13.2605 16.6834 13.2564 16.6857C12.8212 17.1831 12.3941 17.665 11.956 18.117C12.7399 18.59 13.6273 19.1254 14.4927 19.6517C15.1845 18.6642 15.9096 17.7043 16.6682 16.7812C17.4649 15.7437 18.7883 14.7482 20.1281 15.5248C19.5784 14.2763 21.3179 13.5122 21.6533 12.4475C21.7446 12.348 21.8348 12.2415 21.9182 12.1294C20.64 11.1122 19.4367 10.1351 18.346 9.23501ZM32.0812 11.9783C31.5194 11.9827 30.9765 12.2637 30.6684 12.7735L28.2119 16.8368C27.9626 17.2494 27.3748 17.9185 27.5055 18.3476C27.6209 18.7267 28.414 18.8769 28.7819 19.0951C29.3632 19.3923 31.5387 19.9699 31.5674 20.7411C31.5999 21.6127 30.7392 23.2135 31.3507 24.1444C31.6582 24.3268 32.6051 23.0957 33.2211 22.1962C33.4861 21.8095 33.7882 21.5713 33.8874 21.4488C34.1218 21.1594 34.3796 20.9551 34.5858 20.6139L37.0423 16.5585C37.5119 15.7816 37.2567 14.7654 36.4723 14.3002L32.9482 12.2089C32.6786 12.0491 32.3755 11.9761 32.0812 11.9783ZM19.0444 15.7633C19.0055 15.7654 18.9637 15.7656 18.924 15.7713C18.5456 15.8864 18.211 16.0641 17.9045 16.2802C17.8847 16.2967 17.8602 16.3107 17.8402 16.3279C17.3782 16.7258 16.8557 17.3018 16.307 17.9978C15.7927 18.7282 15.3298 19.5051 14.7817 20.1288C12.6458 23.3186 10.6074 27.2086 10.6074 28.001C10.6074 29.4053 15.0945 34.0584 17.2783 37.8293C19.4189 41.5255 22.0876 44.1897 21.838 44.7552C21.1759 48.5421 20.8184 50.1825 20.1682 54.8299C19.5181 59.4774 20.1923 59.4817 20.1923 59.4817C20.1923 59.4817 37.5919 59.4242 37.9333 59.3942C38.2748 59.3642 38.2063 58.8853 38.2063 58.8853C38.2063 58.3365 38.3188 57.6953 38.431 57.2075C38.5433 56.7197 38.5194 53.2976 38.5194 51.9196C38.3521 50.6117 38.7648 45.7809 38.8244 45.5583C38.8841 45.3357 39.2236 44.9323 39.6191 44.5405C40.0147 44.1486 40.6627 42.9263 40.6627 42.9263C41.4544 41.8809 41.6323 42.115 42.0194 41.2962C42.2855 40.7333 42.6695 38.9168 42.9426 37.7179C41.5951 36.8892 40.2645 36.0197 38.9047 35.2211L38.6799 35.4199C38.5504 35.5996 38.3153 35.586 38.1902 35.2927C38.0652 34.9994 37.7487 34.7917 37.7487 34.7917C37.3558 34.6452 36.4898 33.6936 35.3324 32.6766C34.3354 31.4506 33.1131 31.5423 32.4585 31.285C31.8039 31.0277 27.3605 30.0997 26.791 30.0684C26.2215 30.0371 26.791 30.7761 26.791 30.7761C27.824 32.1238 31.1828 36.1173 31.1982 36.1356C31.1776 36.1193 31.1295 36.1338 31.6878 37.4158C32.3259 38.8811 32.7692 40.4999 33.181 41.2008C33.522 42.6373 34.2483 43.0863 34.642 43.2921C35.0357 43.4978 34.8909 43.6737 34.8909 43.6737C34.6311 43.813 34.0698 44.3735 33.759 44.3735C33.4481 44.3735 33.0847 44.8267 33.0847 44.8267C32.7026 45.1656 33.2291 53.9177 33.2291 54.3131C33.2291 54.7084 33.0124 54.8061 33.0124 54.8061C33.0124 54.8061 32.8157 54.6143 32.8759 54.4085C32.9362 54.2027 32.7785 51.8605 32.6833 51.3232C32.4679 50.8805 32.5468 50.3293 32.5468 50.3293C32.6858 49.6727 32.0512 45.6099 31.8885 45.0732C31.7259 44.5365 31.8789 43.9585 31.6557 43.7374C31.4325 43.5162 29.3258 43.7275 29.1511 43.5545C28.9764 43.3814 29.1511 43.3795 29.1511 43.3795C30.2099 43.2817 32.6109 41.5159 32.619 40.9861C32.6273 40.4562 25.07 29.3881 24.3667 28.979C23.6633 28.5699 22.4385 28.3229 22.0949 28.1521C21.7512 27.9812 21.1736 27.5052 20.2886 27.3887C19.4037 27.2722 19.2838 27.0955 19.221 26.9673C19.1582 26.839 19.9274 26.7287 19.9274 26.7287C20.9486 26.0238 21.5893 24.2732 21.3162 23.5878C21.0431 22.9024 21.268 22.7529 21.268 22.7529C22.1106 23.1417 24.463 25.6791 24.463 25.6791C26.0779 26.0291 28.9686 24.9019 29.9218 24.4625C30.875 24.023 31.1037 21.3633 30.9413 20.8127C30.8737 20.5836 29.0717 19.7095 26.8954 18.7532C26.8154 18.7359 26.7318 18.7076 26.6626 18.6578C24.7332 17.8154 22.5698 16.9333 20.979 16.3597C21.0332 16.4689 21.0952 16.5748 21.1476 16.6778C20.7618 16.5144 20.3984 16.2338 20.0157 16.0258C20.0039 16.0219 19.9953 16.0216 19.9836 16.0178C19.5742 15.886 19.2542 15.7977 19.0444 15.7633ZM37.8129 17.6717C37.3334 17.6821 36.8634 17.8923 36.5446 18.292L30.2349 27.2376C29.6681 27.9481 29.7905 28.9902 30.5078 29.5515L33.478 30.959C34.1953 31.5203 35.2473 31.3992 35.8141 30.6886L41.915 23.0391C42.4817 22.3286 42.3594 21.2865 41.6421 20.7252L38.8806 18.0216C38.5668 17.776 38.1859 17.6637 37.8129 17.6717ZM26.9676 18.125C26.7198 18.1618 27.0405 18.3542 26.9676 18.125V18.125ZM43.2235 23.0312C43.0816 23.0353 42.9432 23.0819 42.8382 23.1823L36.0469 31.2453C35.627 31.6467 35.5769 32.2855 35.9425 32.6607L37.7969 34.5611C38.1625 34.9363 38.806 34.9148 39.2258 34.5134L46.6594 27.4046C47.0792 27.0032 47.1213 26.3644 46.7557 25.9892L44.4518 23.6514C44.1775 23.37 43.6493 23.0186 43.2235 23.0312ZM30.6041 25.0986L26.6546 26.18C26.0003 26.3552 24.604 26.7812 24.2061 26.1244C23.8083 25.4676 23.7981 25.287 23.299 25.3133C22.4778 25.4738 22.6901 26.1739 22.8816 26.3947C23.2686 26.8413 25.8987 28.5927 27.2887 29.0744C27.4592 29.1335 27.6059 29.0304 27.8667 28.6451C28.1275 28.2597 30.4168 25.7188 30.6202 25.4167C30.7793 25.1058 30.6041 25.0986 30.6041 25.0986ZM44.797 29.9173C43.7219 30.9147 42.6116 31.8929 41.602 32.939C40.9229 33.4212 40.2543 34.4366 39.4586 34.9746C41.8211 36.4179 44.0614 37.7842 45.9931 38.9425C46.5221 39.3188 47.7853 38.4771 48.8027 37.0738C49.8202 35.6706 50.2148 34.2377 49.6858 33.8614C48.229 32.6547 46.5734 31.3224 44.797 29.9173ZM50.2878 35.4119C49.9165 36.8074 48.9371 38.0967 47.727 38.9425L48.8991 39.7217C49.4262 40.0758 50.1412 39.9456 50.5046 39.4275L51.7007 37.7259C52.0642 37.2079 51.9389 36.5134 51.4117 36.1594L50.2878 35.4119Z" fill="#D8D8D8"/>
</svg>
