<svg width="54" height="70" viewBox="0 0 54 70" fill="none" xmlns="http://www.w3.org/2000/svg">
<path d="M53.4203 61.2758C53.3914 61.1312 51.7727 60.4375 50.0961 59.3391C49.9516 59.2523 50.5875 58.8766 50.443 58.7898C48.593 57.6914 47.9281 57.9805 46.4828 57.1133C42.1469 54.4828 37.4352 51.0141 37.4352 51.0141C37.4352 51.0141 39.4297 46.1289 39.1984 44.9148C38.9672 43.7008 34.6312 39.2203 34.1109 38.5844C33.6195 37.9484 34.4578 36.2141 34.2266 34.2195C34.0531 32.6008 33.3016 31.3289 33.2148 30.6641C33.0414 29.1609 33.4172 27.4266 34.082 26.5883C34.718 25.75 37.6664 23.9289 37.6664 23.9289C37.6664 23.9289 39.2562 25.0852 40.1812 25.2875C41.1062 25.4898 42.2336 25.2586 42.7828 24.7094C43.3031 24.1891 43.332 22.8883 43.0719 22.1945C42.8117 21.5297 40.4125 16.818 40.4125 16.818C40.4125 16.818 41.193 14.2742 40.9906 14.1297C40.7883 13.9852 40.7594 13.5227 40.7594 13.5227C40.7594 13.5227 40.9328 12.1352 40.7594 11.875C40.6148 11.6148 40.0656 11.7305 40.0656 11.7305C40.0656 11.7305 39.9789 11.268 39.6609 11.268C39.343 11.268 39.0828 11.6438 39.0828 11.6438C39.0828 11.6438 38.7937 11.9906 38.6203 12.193C38.4469 12.3953 38.1578 12.1063 37.782 12.3664C37.3773 12.6266 37.0016 13.8984 37.0016 13.8984C37.0016 13.8984 33.8219 12.8867 32.6945 12.2797C31.5672 11.6438 30.4109 9.33125 30.4109 9.33125L30.382 8.00156C30.382 8.00156 31.0758 7.27891 31.1625 6.35391C31.2492 5.42891 30.7867 5.22657 30.7867 5.22657C30.7867 5.22657 31.4805 2.82735 30.4398 1.98907C29.6305 1.32422 28.6477 0.80391 27.318 0.861722C25.9883 0.919535 25.8727 1.2375 24.9187 1.46875C23.9648 1.7 24.1094 3.37657 24.1094 3.37657L23.907 5.28438C23.907 5.28438 23.4156 3.20313 22.4906 2.76953C21.5656 2.33594 21.1609 1.38203 18.8484 1.75782C16.5359 2.1336 15.4953 5.34219 15.4953 5.34219C15.4953 5.34219 14.0211 6.15157 14.5703 7.97266C15.1195 9.79375 17.2586 9.62032 17.5187 10.1117C17.7789 10.6031 17.6055 12.2797 17.6055 12.2797C17.6055 12.2797 13.9922 20.4313 13.3852 21.8188C12.7781 23.2063 12.9227 25.143 13.3852 25.2297C14.5125 25.4898 16.6227 24.0445 16.6227 24.0445C16.6516 25.4031 18.5016 25.9813 18.6461 26.8484C18.8195 27.7156 13.2406 45.5508 11.9398 47.4586C10.6391 49.3664 10.0898 49.1063 8.55781 51.9102C7.25703 54.3094 5.92734 59.8883 4.94453 61.5648C3.96172 63.2414 0.984372 64.9469 0.666403 66.0164C0.348434 67.1148 0.724215 69.0227 1.5914 69.1094C2.45859 69.1672 3.47031 68.7336 3.75937 68.4445C4.01953 68.1844 4.65546 67.1438 5.49375 66.0742C6.24531 65.1203 7.19921 64.1375 7.28593 63.7039C7.34375 63.3281 8.00859 61.0156 9.51171 58.7031C11.8242 55.0898 15.3508 51.0141 15.3508 51.0141C15.3508 51.0141 15.6109 57.9227 15.6977 59.8305C15.7844 61.7383 17.432 63.7328 17.5187 64.918C17.6055 66.1031 16.9695 66.5078 16.5648 66.9414C16.1602 67.375 15.8133 67.9242 16.7961 67.982C17.7789 68.0398 21.5078 67.982 22.1727 67.982C22.8375 67.982 22.0859 62.4898 22.5484 61.218C22.982 59.9461 25.5547 46.2445 25.5547 46.2445C25.5547 46.2445 28.7344 51.7945 29.5727 53.2398C30.4109 54.6852 32.1164 56.0438 32.1164 56.0438C32.1164 56.0438 32.3766 58.7031 32.0875 59.5992C31.7984 60.4664 30.9602 61.7383 30.4687 62.5188C29.9773 63.2992 29.8906 67.0281 29.8906 67.0281L30.382 67.2305L31.1336 65.7273C31.1336 65.7273 31.5383 68.5602 32.1453 68.7047C32.7523 68.8492 34.1687 68.8203 35.1805 68.9359C36.1633 69.0516 36.6547 68.2422 36.25 68.0109C35.8453 67.7508 35.8164 67.7508 35.2094 67.375C34.6023 66.9992 34.6602 66.3922 34.6602 66.3922L35.0937 59.05L45.9047 66.0742L46.8875 65.6695C46.8875 65.6695 47.2344 66.4211 46.8586 66.768C46.4828 67.1148 46.2805 66.8836 45.4711 67.2594C44.9797 67.4906 45.182 67.982 46.1648 68.2133C46.8008 68.3578 48.1305 68.2422 48.882 68.2133C49.6336 68.1844 50.5297 66.1609 50.5297 66.1609L51.05 64.1375C51.05 64.1375 52.0328 64.2242 52.293 63.7039C52.4953 63.1258 53.5648 61.7672 53.4203 61.2758ZM24.8898 13.0023C24.6875 13.1469 22.5195 13.1469 22.5195 13.1469C22.5195 13.1469 22.2883 11.5281 22.5195 11.3547C22.7508 11.1813 23.0398 11.0078 23.3 10.8922C23.5602 10.7766 24.1383 8.05938 24.1383 8.05938L25.5547 11.0656C25.5547 11.0945 25.0922 12.8289 24.8898 13.0023Z" fill="#D8D8D8"/>
</svg>
