<svg width="14" height="18" viewBox="0 0 14 18" fill="none" xmlns="http://www.w3.org/2000/svg">
<path d="M6.99999 0C3.29878 0 0.287689 3.0123 0.287689 6.71497C0.287689 12.2317 6.33187 17.6183 6.58926 17.845C6.7066 17.9483 6.85326 18.0001 6.99999 18.0001C7.14672 18.0001 7.29339 17.9484 7.41078 17.845C7.66805 17.6184 13.7123 12.2318 13.7123 6.71497C13.7123 3.0123 10.7012 0 6.99999 0ZM6.99999 16.5266C5.66369 15.2317 1.53072 10.8885 1.53072 6.71497C1.53072 3.69776 3.98423 1.24303 6.99999 1.24303C10.0157 1.24303 12.4693 3.69776 12.4693 6.71497C12.4693 10.8884 8.3363 15.2316 6.99999 16.5266Z" fill="#CDCDCE"/>
<path d="M7 3.58685C5.28649 3.58685 3.89249 4.99012 3.89249 6.71497C3.89249 8.43988 5.28649 9.84309 7 9.84309C8.71352 9.84309 10.1075 8.43988 10.1075 6.71497C10.1075 4.99012 8.71352 3.58685 7 3.58685ZM7 8.60006C5.97188 8.60006 5.13546 7.75442 5.13546 6.71497C5.13546 5.67557 5.97188 4.82988 7 4.82988C8.02812 4.82988 8.86455 5.67551 8.86455 6.71497C8.86455 7.75442 8.02812 8.60006 7 8.60006Z" fill="#CDCDCE"/>
</svg>
