<svg width="18" height="20" viewBox="0 0 18 20" fill="none" xmlns="http://www.w3.org/2000/svg">
<path fill-rule="evenodd" clip-rule="evenodd" d="M17.6668 15.5789C15.5326 14.6642 15.4514 10.7382 15.4498 10.6391V8.00518C15.4498 5.47016 13.8175 3.29031 11.498 2.36215C11.493 1.05883 10.3744 0 9.00007 0C7.62566 0 6.50715 1.05889 6.50213 2.36209C4.18267 3.29025 2.55034 5.4701 2.55034 8.00512V10.639C2.54883 10.7381 2.46758 14.6642 0.333298 15.5789C0.0901691 15.6831 -0.043455 15.9343 0.0127577 16.1818C0.0689048 16.4293 0.299564 16.6061 0.566386 16.6061H5.97698C6.0879 17.1852 6.37641 17.7239 6.81768 18.1602C7.40376 18.7397 8.17883 19.0588 8.99997 19.0588C9.82117 19.0588 10.5962 18.7397 11.1823 18.1602C11.6236 17.7238 11.9121 17.1851 12.023 16.6061H17.4336C17.7004 16.6061 17.931 16.4293 17.9872 16.1818C18.0435 15.9343 17.9099 15.6831 17.6668 15.5789ZM14.8554 13.6981C15.0798 14.3436 15.3975 14.9919 15.848 15.5313H2.15213C2.60255 14.9919 2.92024 14.3437 3.1446 13.6981H14.8554ZM10.3119 2.01168C10.1474 1.4713 9.62175 1.07487 9.00006 1.07487C8.3784 1.07487 7.85277 1.47133 7.68826 2.01168C8.11198 1.92825 8.55072 1.88431 9.00006 1.88431C9.4494 1.88431 9.88814 1.92828 10.3119 2.01168ZM3.68297 10.6424V8.0051C3.68297 5.22278 6.06818 2.95919 9.00007 2.95919C11.932 2.95919 14.3172 5.22278 14.3172 8.0051V10.6468C14.3179 10.7276 14.3312 11.5772 14.5568 12.6232H3.44318C3.66895 11.5762 3.68228 10.7251 3.68297 10.6424ZM7.13915 16.6061C7.38129 17.3926 8.13568 17.9841 9.00007 17.9841C9.86453 17.9841 10.6188 17.3926 10.8609 16.6061H7.13915Z" fill="white"/>
<path d="M8.92795 4.23529C6.34041 4.23529 4.23529 6.3404 4.23529 8.92797C4.23529 9.26012 4.50457 9.52941 4.83671 9.52941C5.16886 9.52941 5.43814 9.26012 5.43814 8.92797C5.43814 7.00366 7.00366 5.43813 8.92798 5.43813C9.26013 5.43813 9.52941 5.16885 9.52941 4.8367C9.52937 4.50451 9.2601 4.23529 8.92795 4.23529Z" fill="white"/>
</svg>
