<svg width="16" height="16" viewBox="0 0 16 16" fill="none" xmlns="http://www.w3.org/2000/svg">
<g clip-path="url(#clip0_14_743)">
<path d="M6.90027 9.0818L8.81037 10.9919C8.98143 11.163 9.24434 11.2016 9.45737 11.0873L11.7465 9.85842C11.9158 9.76744 12.1204 9.77183 12.2856 9.87001L15.6255 11.8519C15.8638 11.9933 15.9597 12.2891 15.8482 12.5427C15.5628 13.1921 15.0433 14.3825 14.8369 14.9089C14.7936 15.0197 14.7289 15.1212 14.639 15.199C12.4131 17.1284 7.98458 14.7775 4.59484 11.3878C1.20458 7.99785 -1.14634 3.56929 0.783076 1.34341C0.861053 1.25349 0.962565 1.18886 1.07321 1.14548C1.59938 0.939125 2.78994 0.419626 3.4394 0.134236C3.69301 0.0227138 3.98876 0.118605 4.13014 0.356928L6.11206 3.69679C6.21006 3.86205 6.21445 4.06666 6.12366 4.23596L4.89481 6.5247C4.78048 6.73774 4.81911 7.00065 4.99017 7.17171L6.90027 9.0818Z" fill="#D8D8D8"/>
</g>
<defs>
<clipPath id="clip0_14_743">
<rect width="16" height="16" fill="white"/>
</clipPath>
</defs>
</svg>
