<svg width="72" height="18" viewBox="0 0 72 18" fill="none" xmlns="http://www.w3.org/2000/svg">
<path d="M71.1383 8.1383H67.0287V3.23771C67.0287 1.76554 65.8312 0.568344 64.3592 0.568344H41.7623C40.2903 0.568344 39.0931 1.76592 39.0931 3.23771V8.1383H32.9074V3.23771C32.9074 1.76554 31.7099 0.568344 30.2381 0.568344H7.64081C6.16864 0.568344 4.97126 1.76592 4.97126 3.23771V8.1383H0.861702C0.386617 8.1383 0 8.52492 0 9C0 9.47509 0.386617 9.86171 0.861702 9.86171H4.97126V14.7623C4.97126 16.2343 6.16883 17.4317 7.64081 17.4317H30.2377C31.7097 17.4317 32.9071 16.2341 32.9071 14.7623V9.86171H39.0927V14.7623C39.0927 16.2343 40.2903 17.4317 41.7619 17.4317H64.3588C65.831 17.4317 67.0284 16.2341 67.0284 14.7623V9.86171H71.1383C71.6134 9.86171 72 9.47509 72 9C72 8.52492 71.6134 8.1383 71.1383 8.1383ZM6.69466 3.23771C6.69466 2.7159 7.11919 2.29175 7.64081 2.29175H11.9629L6.69447 7.5602L6.69466 3.23771ZM6.69466 9.99747L14.3885 2.30496L14.4381 2.29175H16.087L6.69466 11.6841V9.99747ZM31.1839 14.7623C31.1839 15.2843 30.7595 15.7083 30.2379 15.7083H7.64081C7.119 15.7083 6.69466 15.2837 6.69466 14.7623V14.1212L18.5128 2.30304L18.562 2.29156H30.2379C30.7597 2.29156 31.1839 2.7159 31.1839 3.23751V14.7623ZM40.8162 3.23771C40.8162 2.7159 41.2405 2.29175 41.7619 2.29175H46.0842L40.8158 7.56039L40.8162 3.23771ZM40.8162 9.99728L48.5102 2.30304L48.5594 2.29156H50.2085L40.8162 11.6841V9.99728ZM65.3053 14.7623C65.3053 15.2843 64.8808 15.7083 64.3592 15.7083H41.7623C41.2405 15.7083 40.8165 15.2837 40.8165 14.7623V14.1212L52.6345 2.30304L52.6837 2.29156H64.3596C64.8816 2.29156 65.3057 2.7159 65.3057 3.23751L65.3053 14.7623Z" fill="#D8D8D8"/>
</svg>
