<svg width="62" height="62" viewBox="0 0 62 62" fill="none" xmlns="http://www.w3.org/2000/svg">
<g clip-path="url(#clip0_466_1015)">
<path d="M61.0291 28.9937H33.0062V0.970807C33.0062 0.434605 32.5717 0 32.0354 0H19.6095C19.0733 0 18.6387 0.434484 18.6387 0.970807V13.3967C18.6387 13.9329 19.0732 14.3675 19.6095 14.3675C20.1457 14.3675 20.5803 13.933 20.5803 13.3967V1.94161H22.7807V45.4436C22.7577 46.0806 22.6928 46.6877 22.5153 47.303C22.3368 47.9212 22.0446 48.5223 21.6757 49.0489C20.9362 50.1044 19.909 50.9173 18.703 51.3765C18.0045 51.6423 17.2496 51.7745 16.5031 51.7745C13.0416 51.7745 10.2255 48.9584 10.2255 45.4969C10.2255 42.0621 12.9989 39.2642 16.4238 39.2211C16.4467 39.2209 16.4693 39.2193 16.4922 39.2193C16.5035 39.2195 16.5168 39.2198 16.5248 39.2198L18.6387 39.2194V41.4198L16.5362 41.4202C16.5249 41.4199 16.5112 41.4197 16.503 41.4197C14.2548 41.4197 12.4258 43.2488 12.4258 45.4969C12.4258 47.7451 14.2549 49.5741 16.503 49.5741C18.7511 49.5741 20.5802 47.745 20.5802 45.4969V17.5386C20.5802 17.0024 20.1457 16.5678 19.6094 16.5678C19.0732 16.5678 18.6386 17.0023 18.6386 17.5386V28.9937H16.5029C7.40317 28.9937 0 36.397 0 45.4968C0 54.5966 7.40317 61.9999 16.5031 61.9999C25.603 61.9999 33.0062 54.5967 33.0062 45.4968V43.3612H61.0291C61.5653 43.3612 61.9999 42.9267 61.9999 42.3904V29.9645C61.9999 29.4283 61.5654 28.9937 61.0291 28.9937ZM18.6388 45.4968C18.6388 46.6744 17.6807 47.6325 16.5031 47.6325C15.3255 47.6325 14.3674 46.6744 14.3674 45.4968C14.3674 44.3225 15.3198 43.3666 16.4928 43.361C16.504 43.3613 16.517 43.3615 16.5248 43.3615L18.6387 43.3612V45.4968H18.6388ZM18.6388 37.2777H16.5354C16.5247 37.2777 16.5138 37.2777 16.5031 37.2777C11.9711 37.2777 8.28389 40.965 8.28389 45.4969C8.28389 50.0289 11.9709 53.7161 16.5031 53.7161C21.0353 53.7161 24.7223 50.0291 24.7223 45.4969V45.486V45.4753V1.94161H26.9227V45.4969C26.9227 51.2423 22.2485 55.9165 16.5031 55.9165C10.7577 55.9165 6.0835 51.2423 6.0835 45.4969C6.0835 39.7515 10.7577 35.0773 16.5031 35.0773H18.6388V37.2777ZM31.0646 45.4968C31.0646 53.526 24.5322 60.0584 16.5031 60.0584C8.474 60.0584 1.94149 53.526 1.94149 45.4968C1.94149 37.4675 8.47388 30.9353 16.5031 30.9353H18.6388V33.1357H16.5031C9.68712 33.1357 4.142 38.6808 4.142 45.4968C4.142 52.3128 9.68712 57.8579 16.5031 57.8579C23.3191 57.8579 28.8642 52.3128 28.8642 45.4968V1.94161H31.0646V45.4968ZM60.0584 37.2777H54.8162C54.28 37.2777 53.8454 37.7122 53.8454 38.2485C53.8454 38.7847 54.2799 39.2193 54.8162 39.2193H60.0584V41.4197H33.0062V39.2193H50.6742C51.2104 39.2193 51.6451 38.7848 51.6451 38.2485C51.6451 37.7123 51.2106 37.2777 50.6742 37.2777H33.0062V35.0772H60.0584V37.2777ZM60.0584 33.1357H33.0062V30.9353H60.0584V33.1357Z" fill="#D8D8D8"/>
<path d="M16.3848 5.00588C16.2511 4.61923 15.8769 4.35246 15.4676 4.35246H11.5967L10.4006 0.670858C10.2707 0.270886 9.89783 0 9.47727 0C9.05672 0 8.68399 0.270886 8.55406 0.670858L7.35777 4.35222H3.4869C3.06634 4.35222 2.69361 4.62299 2.56368 5.02308C2.43387 5.42305 2.57615 5.86117 2.91643 6.10844L6.04803 8.38379L4.85186 12.065C4.72762 12.4476 4.85816 12.8784 5.17421 13.1273C5.51182 13.3933 5.99801 13.403 6.34579 13.1503L9.47751 10.875L12.6091 13.1503C12.9738 13.4153 13.4868 13.3899 13.824 13.0908C14.1099 12.8372 14.221 12.4284 14.1029 12.065L12.9068 8.38379L16.0384 6.10844C16.3803 5.8602 16.5229 5.40513 16.3848 5.00588ZM10.8421 8.31295L11.3329 9.82359L10.0477 8.88996C9.71135 8.64547 9.24308 8.64547 8.90668 8.88996L7.62151 9.82359L8.11231 8.31295C8.24224 7.91298 8.09983 7.47474 7.75956 7.22759L6.4744 6.29384H8.06314C8.4837 6.29384 8.85643 6.02307 8.98636 5.62298L9.47727 4.11221L9.96806 5.62298C10.098 6.02307 10.4708 6.29384 10.8913 6.29384H12.4799L11.1947 7.22759C10.8545 7.47474 10.7122 7.91298 10.8421 8.31295Z" fill="#D8D8D8"/>
<path d="M16.3909 19.5202C16.2609 19.1201 15.8881 18.8493 15.4676 18.8493H11.5967L10.4005 15.1679C10.2706 14.768 9.89771 14.4971 9.47727 14.4971C9.05684 14.4971 8.68399 14.768 8.55406 15.1679L7.35777 18.8493H3.4869C3.06634 18.8493 2.69361 19.1201 2.56368 19.5202C2.43387 19.92 2.57615 20.3581 2.91643 20.6054L6.04803 22.8807L4.85186 26.562C4.72762 26.9445 4.85816 27.3754 5.17421 27.6242C5.51182 27.8903 5.99801 27.8999 6.34579 27.6472L9.47751 25.372L12.6091 27.6472C12.9738 27.9123 13.4868 27.8869 13.824 27.5878C14.1099 27.3342 14.221 26.9254 14.1029 26.562L12.9068 22.8807L16.0384 20.6054C16.3785 20.3584 16.5208 19.9201 16.3909 19.5202ZM10.8421 22.8098L11.3329 24.3204L10.0477 23.3868C9.71135 23.1423 9.24308 23.1423 8.90668 23.3868L7.62151 24.3204L8.11231 22.8098C8.24224 22.4098 8.09983 21.9716 7.75956 21.7244L6.4744 20.7907H8.06314C8.4837 20.7907 8.85643 20.5199 8.98636 20.1198L9.47727 18.609L9.96806 20.1198C10.098 20.5199 10.4708 20.7907 10.8913 20.7907H12.4799L11.1947 21.7244C10.8545 21.9716 10.7122 22.4098 10.8421 22.8098Z" fill="#D8D8D8"/>
<path d="M61.9524 51.6202C61.8225 51.2201 61.4496 50.9494 61.0292 50.9494H57.1583L55.9622 47.268C55.8322 46.868 55.4594 46.5972 55.0389 46.5972C54.6184 46.5972 54.2457 46.868 54.1157 47.268L52.9194 50.9494H49.0487C48.6281 50.9494 48.2554 51.2201 48.1255 51.6202C47.9955 52.0202 48.1379 52.4584 48.4782 52.7056L51.6098 54.9809L50.4137 58.6622C50.2894 59.0447 50.4199 59.4756 50.736 59.7244C51.0736 59.9905 51.5599 60.0001 51.9076 59.7474L55.0392 57.4722L58.1708 59.7474C58.5355 60.0125 59.0485 59.9871 59.3857 59.688C59.6716 59.4344 59.7827 59.0256 59.6646 58.6622L58.4684 54.9809L61.6 52.7056C61.9399 52.4583 62.0823 52.0201 61.9524 51.6202ZM56.4037 54.91L56.8945 56.4206L55.6093 55.487C55.2729 55.2425 54.8046 55.2425 54.4682 55.487L53.1831 56.4206L53.6739 54.91C53.8038 54.51 53.6614 54.0718 53.3211 53.8246L52.0359 52.8909H53.6243C54.0449 52.8909 54.4176 52.6201 54.5475 52.22L55.0385 50.7092L55.5292 52.22C55.6592 52.6201 56.032 52.8909 56.4525 52.8909H58.0411L56.7559 53.8246C56.416 54.0716 56.2737 54.51 56.4037 54.91Z" fill="#D8D8D8"/>
<path d="M47.0103 51.6204C46.8804 51.2201 46.5076 50.9494 46.0872 50.9494H42.2165L41.0202 47.268C40.8902 46.8679 40.5174 46.5972 40.097 46.5972C39.6765 46.5972 39.3037 46.868 39.1737 47.268L37.9776 50.9494H34.1066C33.686 50.9494 33.3133 51.2201 33.1834 51.6202C33.0534 52.0202 33.1958 52.4584 33.5361 52.7056L36.6677 54.9809L35.4715 58.6622C35.3473 59.0447 35.4778 59.4756 35.7939 59.7244C36.1315 59.9905 36.6177 60.0001 36.9655 59.7474L40.0971 57.4722L43.2287 59.7474C43.5934 60.0125 44.1064 59.9871 44.4436 59.688C44.7295 59.4344 44.8405 59.0256 44.7225 58.6622L43.5263 54.9809L46.6579 52.7056C46.9978 52.4586 47.1402 52.0203 47.0103 51.6204ZM41.4616 54.91L41.9523 56.4206L40.6672 55.487C40.3308 55.2425 39.8625 55.2425 39.5261 55.487L38.241 56.4206L38.7317 54.91C38.8617 54.51 38.7193 54.0718 38.379 53.8246L37.0938 52.8909H38.6825C39.103 52.8909 39.4757 52.6201 39.6057 52.22L40.0965 50.7092L40.5874 52.22C40.7173 52.6201 41.0902 52.8909 41.5106 52.8909H43.099L41.8138 53.8246C41.474 54.0716 41.3316 54.51 41.4616 54.91Z" fill="#D8D8D8"/>
<path d="M41.8726 3.62421H39.8016C38.4099 3.62421 37.2777 4.75656 37.2777 6.14816V11.3256C37.2777 12.7174 38.41 13.8496 39.8016 13.8496H41.8726C43.2643 13.8496 44.3965 12.7172 44.3965 11.3256V6.14828C44.3965 4.75656 43.2643 3.62421 41.8726 3.62421ZM42.455 11.3256C42.455 11.6468 42.1937 11.9081 41.8726 11.9081H39.8016C39.4805 11.9081 39.2192 11.6468 39.2192 11.3256V6.14828C39.2192 5.82714 39.4805 5.56582 39.8016 5.56582H41.8726C42.1937 5.56582 42.455 5.82714 42.455 6.14828V11.3256Z" fill="#D8D8D8"/>
<path d="M41.8726 15.0146H39.8016C38.4099 15.0146 37.2777 16.147 37.2777 17.5386V22.7161C37.2777 24.1078 38.41 25.24 39.8016 25.24H41.8726C43.2643 25.24 44.3965 24.1077 44.3965 22.7161V17.5386C44.3965 16.147 43.2643 15.0146 41.8726 15.0146ZM42.455 22.7161C42.455 23.0372 42.1937 23.2985 41.8726 23.2985H39.8016C39.4805 23.2985 39.2192 23.0372 39.2192 22.7161V17.5386C39.2192 17.2174 39.4805 16.9561 39.8016 16.9561H41.8726C42.1937 16.9561 42.455 17.2174 42.455 17.5386V22.7161Z" fill="#D8D8D8"/>
<path d="M47.5031 6.14828C47.5031 3.04368 44.9773 0.517792 41.8726 0.517792H39.8016C36.697 0.517792 34.1711 3.04356 34.1711 6.14828V11.3258C34.1711 12.4376 34.4997 13.5152 35.108 14.4322C34.4997 15.3491 34.1711 16.4268 34.1711 17.5386V22.716C34.1711 25.8209 36.6969 28.3465 39.8016 28.3465H41.8726C44.9772 28.3465 47.5031 25.8208 47.5031 22.716V17.5386C47.5031 16.4267 47.1745 15.3491 46.5662 14.4322C47.1745 13.5152 47.5031 12.4375 47.5031 11.3258V6.14828ZM45.5616 11.3256C45.5616 12.2331 45.2269 13.1062 44.6191 13.7842C44.2885 14.1529 44.2885 14.7113 44.6191 15.0801C45.2267 15.7581 45.5616 16.6312 45.5616 17.5387V22.7162C45.5616 24.7503 43.9067 26.405 41.8726 26.405H39.8016C37.7675 26.405 36.1128 24.7502 36.1128 22.7162V17.5387C36.1128 16.6312 36.4475 15.7581 37.0552 15.0801C37.3858 14.7114 37.3858 14.153 37.0552 13.7842C36.4476 13.1062 36.1128 12.2331 36.1128 11.3256V6.14828C36.1128 4.11415 37.7676 2.45928 39.8016 2.45928H41.8726C43.9067 2.45928 45.5616 4.11415 45.5616 6.14828V11.3256Z" fill="#D8D8D8"/>
<path d="M56.3694 3.62421H54.2985C52.9067 3.62421 51.7745 4.75656 51.7745 6.14816V22.7159C51.7745 24.1077 52.9068 25.2399 54.2985 25.2399H56.3694C57.7611 25.2399 58.8934 24.1075 58.8934 22.7159V6.14828C58.8935 4.75656 57.7611 3.62421 56.3694 3.62421ZM56.9519 22.7161C56.9519 23.0372 56.6905 23.2985 56.3694 23.2985H54.2985C53.9773 23.2985 53.716 23.0372 53.716 22.7161V6.14828C53.716 5.82714 53.9773 5.56582 54.2985 5.56582H56.3694C56.6905 5.56582 56.9519 5.82714 56.9519 6.14828V22.7161Z" fill="#D8D8D8"/>
<path d="M56.3694 0.517792H54.2985C51.1939 0.517792 48.668 3.04356 48.668 6.14828V22.716C48.668 25.8209 51.1937 28.3465 54.2985 28.3465H56.3694C59.474 28.3465 61.9999 25.8208 61.9999 22.716V6.14828C61.9999 3.04356 59.4741 0.517792 56.3694 0.517792ZM60.0584 22.716C60.0584 24.7502 58.4035 26.4049 56.3694 26.4049H54.2985C52.2643 26.4049 50.6096 24.7501 50.6096 22.716V6.14828C50.6096 4.11415 52.2644 2.45928 54.2985 2.45928H56.3694C58.4035 2.45928 60.0584 4.11415 60.0584 6.14828V22.716Z" fill="#D8D8D8"/>
</g>
<defs>
<clipPath id="clip0_466_1015">
<rect width="62" height="62" fill="white"/>
</clipPath>
</defs>
</svg>
