<svg width="31" height="31" viewBox="0 0 31 31" fill="none" xmlns="http://www.w3.org/2000/svg">
<g clip-path="url(#clip0_14_1329)">
<path d="M30.0473 26.4374L23.381 19.7708C26.6136 14.8633 26.0733 8.18309 21.7593 3.8691C16.827 -1.06248 8.80134 -1.06282 3.86941 3.8691C-1.06251 8.80137 -1.06251 16.8264 3.86941 21.759C6.33572 24.2249 9.57478 25.4578 12.8142 25.4578C15.2417 25.4578 17.6689 24.7653 19.7711 23.3807L26.4374 30.047C26.9359 30.5455 27.5892 30.7949 28.2422 30.7949C28.8952 30.7949 29.5488 30.5455 30.0473 30.0474C31.044 29.0504 31.044 27.4344 30.0473 26.4374ZM7.47937 18.1494C4.53771 15.2074 4.53771 10.4207 7.47937 7.47906C8.95038 6.0084 10.8821 5.27307 12.8145 5.27307C14.7466 5.27307 16.6787 6.0084 18.1493 7.47906C21.0907 10.4204 21.091 15.2057 18.151 18.1473C18.1503 18.148 18.1497 18.1483 18.1493 18.149C18.1486 18.1497 18.1483 18.15 18.148 18.1507C15.2049 21.0907 10.4204 21.0903 7.47937 18.1494Z" fill="#D8D8D8"/>
</g>
<defs>
<clipPath id="clip0_14_1329">
<rect width="31" height="31" fill="white"/>
</clipPath>
</defs>
</svg>
