<svg width="44" height="62" viewBox="0 0 44 62" fill="none" xmlns="http://www.w3.org/2000/svg">
<path d="M43.8906 3.92552C43.8482 3.36437 43.3591 2.94369 42.7978 2.9862C42.2368 3.02858 41.8161 3.5178 41.8585 4.07895C42.0759 6.95686 41.7679 11.1545 39.0663 14.8086C36.361 18.4679 32.5239 19.741 30.4624 20.425C27.4096 21.4377 24.6073 21.7016 22.008 21.6334C22.2358 21.1419 22.3639 20.5949 22.3639 20.0184C22.3639 18.2234 21.1304 16.7111 19.4667 16.2844V14.9558H24.9072C26.9674 14.9558 28.6433 13.2798 28.6433 11.2197V10.1329C28.6433 9.57006 28.1872 9.11403 27.6244 9.11403H22.6658L24.7046 2.53754C24.8907 1.93716 24.7837 1.30251 24.4107 0.79658C24.0378 0.29065 23.4634 0.000509855 22.8348 0.000509855H17.4288C16.8661 0.000509855 16.4099 0.456549 16.4099 1.01939C16.4099 1.58224 16.8661 2.03828 17.4288 2.03828H22.726L20.5323 9.11415H16.3314L13.3294 0.677545C13.1409 0.147397 12.5578 -0.128939 12.0279 0.0591192C11.4977 0.247783 11.221 0.830608 11.4095 1.36076L14.1684 9.1139H9.35176C8.78903 9.1139 8.33287 9.56994 8.33287 10.1328V11.2196C8.33287 13.2796 10.0088 14.9557 12.069 14.9557H17.4291V16.3192C15.8285 16.7876 14.6554 18.2682 14.6554 20.0184C14.6554 20.3021 14.687 20.5785 14.7456 20.8449C10.6993 20.2739 7.18066 19.9968 4.27841 22.6822C3.48852 23.4133 1.62416 25.4309 1.37386 28.3705C1.3569 28.5696 1.00319 33.2731 4.81074 35.8244C6.32732 36.8406 7.89996 37.1224 9.1775 37.1224C9.68755 37.1224 10.1501 37.0775 10.5436 37.0164C10.8391 37.8669 11.4337 38.5781 12.201 39.0244C8.43217 41.1169 5.8754 45.1381 5.8754 49.7458C5.8754 52.0264 6.51065 54.2417 7.68841 56.1585H4.822C2.19148 56.1585 0.0513916 58.2987 0.0513916 60.9291V60.9814C0.0513916 61.5442 0.507552 62.0003 1.07027 62.0003H35.906C36.4688 62.0003 36.9249 61.5442 36.9249 60.9814V60.9291C36.9249 58.2986 34.785 56.1585 32.1543 56.1585H10.1763C8.71395 54.3463 7.91316 52.0868 7.91316 49.7458C7.91316 44.1124 12.4963 39.5293 18.1297 39.5293C23.7631 39.5293 28.3464 44.1124 28.3464 49.7458C28.3464 50.8186 28.1812 51.8748 27.8552 52.8849C27.6826 53.4204 27.9767 53.9946 28.5123 54.1673C29.048 54.3401 29.622 54.0459 29.7948 53.5103C30.1858 52.2976 30.3842 51.031 30.3842 49.7457C30.3842 45.2761 27.9785 41.3585 24.3945 39.2177C25.7143 38.6407 26.6395 37.3232 26.6395 35.793C26.6395 34.1116 25.5227 32.6865 23.9921 32.2193C23.7315 30.5384 22.7161 29.1045 21.3048 28.2735C21.9242 27.5893 22.302 26.6827 22.302 25.6893C22.302 24.9446 22.0891 24.2489 21.7217 23.6588C24.5674 23.7515 27.7054 23.4866 31.1038 22.3593C33.2175 21.658 37.6155 20.1987 40.7047 16.0202C43.941 11.6431 44.0899 6.56355 43.8906 3.92552ZM9.69094 58.196C9.6953 58.196 9.69954 58.1967 9.70389 58.1967C9.70898 58.1967 9.71395 58.1962 9.71903 58.196H32.1546C33.3212 58.196 34.3195 58.9308 34.7107 59.9621H2.26583C2.65709 58.9309 3.65538 58.196 4.822 58.196H9.69094ZM12.0689 12.9179C11.1326 12.9179 10.3706 12.156 10.3706 11.2197V11.1518H15.6124H21.2832H26.6056V11.2197C26.6056 12.1561 25.8438 12.9179 24.9073 12.9179H12.0689ZM18.2561 18.2215C18.3184 18.2334 18.3823 18.2401 18.448 18.2401C18.5305 18.2401 18.6105 18.2292 18.6875 18.2107C19.6059 18.3003 20.3262 19.0765 20.3262 20.0183C20.3262 20.6182 20.0325 21.1495 19.5828 21.4805C18.7404 21.3995 17.92 21.2957 17.1194 21.1849C16.854 20.8691 16.6933 20.4622 16.6933 20.0183C16.6932 19.1028 17.3745 18.3455 18.2561 18.2215ZM18.448 23.8724C19.4496 23.8724 20.2645 24.6873 20.2645 25.689C20.2645 26.6905 19.4496 27.5054 18.448 27.5054C17.4464 27.5055 16.6315 26.6905 16.6315 25.689C16.6315 24.6874 17.4464 23.8724 18.448 23.8724ZM10.43 34.9665C9.45311 35.1445 7.6229 35.2554 5.94515 34.1311C3.12439 32.241 3.40121 28.5796 3.40436 28.5428C3.59399 26.3133 5.04675 24.7472 5.66239 24.1776C8.08766 21.9334 11.178 22.3832 15.4551 23.0054C15.522 23.0152 15.5898 23.025 15.6571 23.0347C14.9988 23.7265 14.5937 24.661 14.5937 25.689C14.5937 26.6972 14.9832 27.6157 15.619 28.3031C14.2347 29.1386 13.2414 30.5585 12.984 32.2188C11.712 32.6072 10.7268 33.6574 10.43 34.9665ZM22.9035 34.0947C23.8399 34.0947 24.6017 34.8565 24.6017 35.7929C24.6017 36.7293 23.8399 37.4911 22.9035 37.4911H14.0727C13.1363 37.4911 12.3745 36.7293 12.3745 35.7929C12.3745 34.8565 13.1363 34.0947 14.0727 34.0947H22.9035ZM21.8701 32.0568H15.1064C15.5447 30.6042 16.8947 29.5434 18.4882 29.5434C20.0816 29.5434 21.4315 30.6044 21.8701 32.0568Z" fill="#D8D8D8"/>
</svg>
