<svg width="49" height="57" viewBox="0 0 49 57" fill="none" xmlns="http://www.w3.org/2000/svg">
<path d="M36.6285 21.3039C37.1051 20.6844 37.2004 19.8266 36.843 19.0879C36.4855 18.3492 35.7469 17.9203 34.9367 17.9203H21.2594L14.2301 10.891C15.9695 5.19609 13.4437 2.38438 12.848 1.86016C11.8949 0.907031 10.632 0.382812 9.29765 0.382812C8.03476 0.382812 6.81952 0.907031 5.91406 1.8125C5.29452 2.43203 4.81796 3.28984 4.60351 4.14766C3.69804 4.36211 2.91171 4.83867 2.26835 5.4582C0.338274 7.41211 0.290618 10.6289 2.19687 12.5352C2.62577 12.9641 4.31757 14.4891 7.53437 14.4891C8.70195 14.4891 9.96484 14.2746 11.2277 13.9172L15.2309 17.9203H9.05937C8.27304 17.9203 7.53437 18.3969 7.15312 19.0879C6.7957 19.7789 6.89101 20.6605 7.36757 21.3039L19.8773 37.8883V52.4234H14.3016C13.134 52.4234 12.1809 53.3766 12.1809 54.5441C12.1809 55.7117 13.134 56.6648 14.3016 56.6648H29.766C30.9336 56.6648 31.8867 55.7117 31.8867 54.5441C31.8867 53.3766 30.9336 52.4234 29.766 52.4234H24.1187V37.9121L36.6285 21.3039ZM10.1793 9.79492C9.22617 10.1047 8.3207 10.2715 7.58202 10.2715C6.15234 10.2715 5.46132 9.74727 5.31835 9.65195C5.2707 9.6043 5.31835 9.65195 5.22304 9.6043C4.96093 9.34219 5.00859 8.81797 5.31835 8.5082C5.53281 8.29375 5.74726 8.29375 5.84257 8.29375C5.89023 8.29375 6.00937 8.29375 6.05702 8.34141C6.7957 8.55586 7.62968 8.38906 8.17773 7.81719C8.70195 7.29297 8.9164 6.43516 8.70195 5.69648C8.65429 5.48203 8.70195 5.12461 8.96406 4.8625C9.22616 4.60039 9.65507 4.64805 9.91718 4.95781C9.96484 5.00547 9.96484 5.00547 10.0125 5.00547C10.1793 5.19609 11.1801 6.5543 10.1793 9.79492ZM21.998 33.6469L13.2769 22.1379H30.7191L21.998 33.6469Z" fill="#D8D8D8"/>
<path d="M34.0551 34.0281C33.4832 34.0281 32.8398 33.9805 32.268 33.9328C31.1004 33.766 30.314 32.7176 30.4094 31.55C30.5762 30.3824 31.6246 29.5961 32.7922 29.6914C33.2211 29.7391 33.6262 29.7391 34.0551 29.7391C39.5594 29.7391 43.9914 25.307 43.9914 19.8027C43.9914 14.2984 39.5594 9.86641 34.0551 9.86641C30.1949 9.86641 26.6683 12.1301 25.0242 15.6328C24.5476 16.6812 23.2848 17.1578 22.2125 16.6813C21.164 16.2047 20.6875 14.9418 21.164 13.8695C23.4992 8.8418 28.5508 5.625 34.0551 5.625C41.8707 5.625 48.209 11.9633 48.209 19.7789C48.209 27.6422 41.8707 34.0281 34.0551 34.0281Z" fill="#D8D8D8"/>
</svg>
