<svg width="61" height="40" viewBox="0 0 61 40" fill="none" xmlns="http://www.w3.org/2000/svg">
<path d="M0.4741 18.7335C1.92465 16.9628 3.44321 15.3513 5.01687 13.9028C12.1331 7.35467 20.5827 3.85651 29.294 3.68085C32.551 3.6151 35.8393 4.01461 39.1018 4.89341L36.1709 7.85656C33.8968 7.39683 31.6197 7.19206 29.363 7.23773C21.514 7.39633 13.8671 10.5788 7.39027 16.5392C6.23658 17.6007 5.12559 18.7425 4.06324 19.9621C6.08418 22.3315 8.33248 24.3792 10.7411 26.0987C12.2244 27.1582 13.7678 28.0927 15.3559 28.9022L12.7437 31.5432C11.3626 30.7883 10.0163 29.9452 8.71274 29.0142C5.66321 26.837 2.84849 24.1815 0.382758 21.0592C-0.167776 20.3581 -0.113169 19.3679 0.4741 18.7335ZM47.6715 0L50.597 2.95763L13.9589 40L11.033 37.0414L47.6715 0ZM48.5105 8.83775C50.7062 10.106 52.8626 11.6122 54.961 13.3618C56.8857 14.9658 58.7512 16.7611 60.5408 18.7495C61.1182 19.3905 61.1465 20.341 60.653 21.0116C58.6023 23.9396 56.2468 26.44 53.6688 28.5213C47.2193 33.7264 39.3853 36.289 31.4494 36.3252C28.4143 36.3387 26.5855 34.7487 23.5935 34.0285L25.3533 32.2503C27.3713 32.6042 29.4076 32.7768 31.4355 32.7678C38.5944 32.7357 45.6595 30.425 51.4742 25.7313C53.4589 24.1298 55.2996 22.2487 56.9487 20.0831C55.5652 18.6251 54.1553 17.3011 52.7251 16.1091C50.5136 14.2657 48.2365 12.7168 45.9207 11.4551L48.5105 8.83775ZM30.5003 9.10576C31.8227 9.10576 33.0896 9.34717 34.2612 9.78783L31.437 12.6431C31.1297 12.6034 30.8175 12.5833 30.5008 12.5833C28.4749 12.5833 26.6411 13.4135 25.3136 14.7555C23.9862 16.0976 23.1651 17.952 23.1651 20.0003C23.1651 20.321 23.185 20.6366 23.2242 20.9463L20.4 23.8026C19.9637 22.6186 19.7254 21.3373 19.7254 20.0003C19.7254 16.9914 20.9317 14.2687 22.8817 12.2968C24.8311 10.3248 27.5247 9.10576 30.5003 9.10576ZM40.7628 16.6707C41.0954 17.7197 41.2751 18.8389 41.2751 20.0003C41.2751 23.0086 40.0688 25.7318 38.1194 27.7032C36.1689 29.6747 33.4753 30.8937 30.5003 30.8937C29.352 30.8937 28.2455 30.7126 27.2075 30.3753L30.1433 27.4071C30.2615 27.4131 30.3806 27.4162 30.5003 27.4162C32.5262 27.4162 34.36 26.587 35.6874 25.245C37.0148 23.9029 37.8359 22.0485 37.8359 20.0008C37.8359 19.8798 37.8329 19.7598 37.827 19.6394L40.7628 16.6707Z" fill="#D8D8D8"/>
</svg>
