<svg width="50" height="50" viewBox="0 0 50 50" fill="none" xmlns="http://www.w3.org/2000/svg">
<path d="M17.7387 42.7386H4.25003C4.07648 42.7382 3.90534 42.698 3.74973 42.6212C3.59411 42.5444 3.45816 42.4329 3.3523 42.2954C3.24775 42.1602 3.17506 42.0031 3.13964 41.8358C3.10423 41.6686 3.107 41.4955 3.14776 41.3295L4.18185 37.1704C4.24626 36.9204 4.3939 36.6998 4.60045 36.5449C4.807 36.3899 5.06015 36.31 5.31821 36.3181H16.6818C16.9399 36.31 17.1931 36.3899 17.3996 36.5449C17.6062 36.6998 17.7538 36.9204 17.8182 37.1704L18.8523 41.3295C18.8944 41.4997 18.8967 41.6773 18.8588 41.8484C18.8209 42.0196 18.7439 42.1796 18.6338 42.3161C18.5238 42.4525 18.3837 42.5617 18.2244 42.635C18.0652 42.7083 17.8912 42.7437 17.7159 42.7386H17.7387ZM5.68185 40.4659H16.2614L15.8182 38.6363H6.17048L5.68185 40.4659Z" fill="#D8D8D8"/>
<path d="M45.7501 42.7386H32.2614C32.0862 42.7437 31.9122 42.7083 31.7529 42.635C31.5937 42.5617 31.4536 42.4525 31.3435 42.3161C31.2335 42.1796 31.1565 42.0196 31.1186 41.8484C31.0807 41.6773 31.0829 41.4997 31.1251 41.3295L32.1592 37.1704C32.2236 36.9204 32.3712 36.6998 32.5778 36.5449C32.7843 36.3899 33.0375 36.31 33.2955 36.3181H44.716C44.974 36.31 45.2272 36.3899 45.4337 36.5449C45.6403 36.6998 45.7879 36.9204 45.8523 37.1704L46.8864 41.3295C46.9272 41.4955 46.93 41.6686 46.8945 41.8358C46.8591 42.0031 46.7864 42.1602 46.6819 42.2954C46.5726 42.4376 46.4311 42.5518 46.2692 42.6289C46.1072 42.7059 45.9293 42.7435 45.7501 42.7386ZM33.716 40.4659H44.3183L43.8296 38.6363H34.1933L33.716 40.4659Z" fill="#D8D8D8"/>
<path d="M48.8636 50H1.13636C0.834981 50 0.545943 49.8803 0.332833 49.6672C0.119724 49.454 0 49.165 0 48.8636V41.6023C0 41.3009 0.119724 41.0118 0.332833 40.7987C0.545943 40.5856 0.834981 40.4659 1.13636 40.4659H48.8636C49.165 40.4659 49.4541 40.5856 49.6672 40.7987C49.8803 41.0118 50 41.3009 50 41.6023V48.8636C50 49.165 49.8803 49.454 49.6672 49.6672C49.4541 49.8803 49.165 50 48.8636 50ZM2.27273 47.7273H47.7273V42.7386H2.27273V47.7273Z" fill="#D8D8D8"/>
<path d="M41.6022 46.7841C42.1733 46.7841 42.6363 46.3211 42.6363 45.75C42.6363 45.1789 42.1733 44.7159 41.6022 44.7159C41.0311 44.7159 40.5681 45.1789 40.5681 45.75C40.5681 46.3211 41.0311 46.7841 41.6022 46.7841Z" fill="#D8D8D8"/>
<path d="M44.7159 46.7841C45.287 46.7841 45.7499 46.3211 45.7499 45.75C45.7499 45.1789 45.287 44.7159 44.7159 44.7159C44.1447 44.7159 43.6818 45.1789 43.6818 45.75C43.6818 46.3211 44.1447 46.7841 44.7159 46.7841Z" fill="#D8D8D8"/>
<path d="M27.1478 10.5682H26.2955C25.9941 10.5682 25.7051 10.4485 25.492 10.2354C25.2788 10.0223 25.1591 9.73326 25.1591 9.43187C25.1591 9.13049 25.2788 8.84145 25.492 8.62834C25.7051 8.41523 25.9941 8.29551 26.2955 8.29551H27.1478C27.4491 8.29551 27.7382 8.41523 27.9513 8.62834C28.1644 8.84145 28.2841 9.13049 28.2841 9.43187C28.2841 9.73326 28.1644 10.0223 27.9513 10.2354C27.7382 10.4485 27.4491 10.5682 27.1478 10.5682Z" fill="#D8D8D8"/>
<path d="M27.6932 20.9432C26.7457 20.9492 25.8063 20.7679 24.9291 20.4098C24.0519 20.0517 23.2541 19.5239 22.5814 18.8565C21.9088 18.1892 21.3747 17.3955 21.0097 16.5211C20.6447 15.6468 20.456 14.7089 20.4545 13.7614V9.68184C20.4545 9.38046 20.5743 9.09142 20.7874 8.87831C21.0005 8.6652 21.2895 8.54548 21.5909 8.54548C21.8923 8.54548 22.1813 8.6652 22.3944 8.87831C22.6075 9.09142 22.7273 9.38046 22.7273 9.68184V13.7614C22.788 15.024 23.3323 16.2148 24.2473 17.0869C25.1624 17.959 26.378 18.4454 27.642 18.4454C28.9061 18.4454 30.1217 17.959 31.0367 17.0869C31.9518 16.2148 32.4961 15.024 32.5568 13.7614V11.8182C32.5568 11.5168 32.6765 11.2278 32.8896 11.0147C33.1027 10.8016 33.3918 10.6818 33.6932 10.6818C33.9945 10.6818 34.2836 10.8016 34.4967 11.0147C34.7098 11.2278 34.8295 11.5168 34.8295 11.8182V13.7614C34.8266 15.6574 34.0752 17.4755 32.7388 18.8204C31.4024 20.1653 29.5891 20.9282 27.6932 20.9432Z" fill="#D8D8D8"/>
<path d="M21.4659 15.7613H19.3864C18.568 15.7126 17.7991 15.3532 17.2369 14.7565C16.6747 14.1598 16.3616 13.3709 16.3616 12.5511C16.3616 11.7313 16.6747 10.9424 17.2369 10.3457C17.7991 9.74902 18.568 9.38959 19.3864 9.34087H21.4659C21.7673 9.34087 22.0564 9.4606 22.2695 9.67371C22.4826 9.88682 22.6023 10.1759 22.6023 10.4772V14.625C22.6023 14.9263 22.4826 15.2154 22.2695 15.4285C22.0564 15.6416 21.7673 15.7613 21.4659 15.7613ZM19.3864 11.6136C19.1556 11.6391 18.9422 11.7488 18.7872 11.9218C18.6323 12.0948 18.5466 12.3189 18.5466 12.5511C18.5466 12.7834 18.6323 13.0074 18.7872 13.1804C18.9422 13.3534 19.1556 13.4631 19.3864 13.4886H20.3296V11.6136H19.3864Z" fill="#D8D8D8"/>
<path d="M35.9887 15.7613H33.9092C33.6078 15.7613 33.3188 15.6416 33.1057 15.4285C32.8925 15.2154 32.7728 14.9263 32.7728 14.625V10.4772C32.7728 10.1759 32.8925 9.88682 33.1057 9.67371C33.3188 9.4606 33.6078 9.34087 33.9092 9.34087H35.9887C36.4264 9.31482 36.8647 9.37853 37.2768 9.52808C37.6889 9.67763 38.0661 9.90987 38.3852 10.2105C38.7043 10.5112 38.9585 10.8739 39.1323 11.2764C39.3061 11.6789 39.3957 12.1127 39.3957 12.5511C39.3957 12.9895 39.3061 13.4233 39.1323 13.8258C38.9585 14.2283 38.7043 14.591 38.3852 14.8917C38.0661 15.1923 37.6889 15.4246 37.2768 15.5741C36.8647 15.7237 36.4264 15.7874 35.9887 15.7613ZM35.0456 13.4886H35.9887C36.1205 13.5031 36.2539 13.4897 36.3801 13.4492C36.5064 13.4087 36.6227 13.3421 36.7214 13.2536C36.8202 13.1652 36.8992 13.0569 36.9533 12.9358C37.0073 12.8148 37.0353 12.6837 37.0353 12.5511C37.0353 12.4185 37.0073 12.2874 36.9533 12.1664C36.8992 12.0453 36.8202 11.937 36.7214 11.8486C36.6227 11.7601 36.5064 11.6935 36.3801 11.653C36.2539 11.6125 36.1205 11.5991 35.9887 11.6136H35.0456V13.4886Z" fill="#D8D8D8"/>
<path d="M35.9887 11.6136C35.6873 11.6136 35.3983 11.4939 35.1852 11.2808C34.9721 11.0677 34.8523 10.7787 34.8523 10.4773V6.32955C34.8523 5.25361 34.4249 4.22174 33.6641 3.46094C32.9033 2.70014 31.8714 2.27273 30.7955 2.27273H24.5796C23.5037 2.27273 22.4718 2.70014 21.711 3.46094C20.9502 4.22174 20.5228 5.25361 20.5228 6.32955V10.4773C20.5228 10.7787 20.4031 11.0677 20.19 11.2808C19.9768 11.4939 19.6878 11.6136 19.3864 11.6136C19.085 11.6136 18.796 11.4939 18.5829 11.2808C18.3698 11.0677 18.2501 10.7787 18.2501 10.4773V6.32955C18.2531 4.65177 18.9209 3.04357 20.1073 1.8572C21.2936 0.67083 22.9018 0.00300408 24.5796 0H30.7955C32.4733 0.00300408 34.0815 0.67083 35.2679 1.8572C36.4542 3.04357 37.1221 4.65177 37.1251 6.32955V10.4773C37.1251 10.7787 37.0053 11.0677 36.7922 11.2808C36.5791 11.4939 36.2901 11.6136 35.9887 11.6136Z" fill="#D8D8D8"/>
<path d="M21.591 13.6364H21.4205C21.1192 13.6364 20.8301 13.5166 20.617 13.3035C20.4039 13.0904 20.2842 12.8014 20.2842 12.5C20.2842 12.1986 20.4039 11.9096 20.617 11.6965C20.8301 11.4834 21.1192 11.3636 21.4205 11.3636H21.591C21.8924 11.3636 22.1814 11.4834 22.3945 11.6965C22.6076 11.9096 22.7274 12.1986 22.7274 12.5C22.7274 12.8014 22.6076 13.0904 22.3945 13.3035C22.1814 13.5166 21.8924 13.6364 21.591 13.6364Z" fill="#D8D8D8"/>
<path d="M33.9092 13.6364H33.7387C33.4373 13.6364 33.1483 13.5166 32.9352 13.3035C32.7221 13.0904 32.6024 12.8014 32.6024 12.5C32.6024 12.1986 32.7221 11.9096 32.9352 11.6965C33.1483 11.4834 33.4373 11.3636 33.7387 11.3636H33.9092C34.2106 11.3636 34.4996 11.4834 34.7127 11.6965C34.9258 11.9096 35.0455 12.1986 35.0455 12.5C35.0455 12.8014 34.9258 13.0904 34.7127 13.3035C34.4996 13.5166 34.2106 13.6364 33.9092 13.6364Z" fill="#D8D8D8"/>
<path d="M25.6136 13.6364C23.3977 13.6364 21.4545 11.3637 20.7273 10.3068C20.6534 10.2164 20.5851 10.1215 20.5227 10.0227C20.3963 9.83464 20.329 9.61302 20.3295 9.38638C20.2689 8.46434 20.4161 7.54044 20.7603 6.6829C21.1045 5.82537 21.6369 5.05608 22.3182 4.43184C23.886 3.27715 25.8459 2.78718 27.7727 3.0682C30.7727 3.0682 32.9318 3.96593 34.1591 5.68184C36.0795 8.36366 34.8636 11.9887 34.8068 12.1477C34.7293 12.3695 34.585 12.5618 34.3937 12.6981C34.2024 12.8345 33.9735 12.9082 33.7386 12.9091C31.3463 12.5737 29.0356 11.8034 26.9204 10.6364C26.7939 11.2492 26.7367 11.8744 26.75 12.5C26.7509 12.6496 26.7222 12.7978 26.6656 12.9363C26.6091 13.0747 26.5258 13.2007 26.4204 13.3068C26.3143 13.4122 26.1883 13.4955 26.0499 13.552C25.9114 13.6086 25.7632 13.6372 25.6136 13.6364ZM22.6023 9.09093C23.1421 9.8459 23.807 10.5031 24.5682 11.0341C24.6136 10.1447 24.9489 9.29466 25.5227 8.61366C25.682 8.46649 25.88 8.36797 26.0934 8.32971C26.3069 8.29145 26.5268 8.31506 26.7273 8.39775C26.8969 8.32941 27.0805 8.30303 27.2625 8.32083C27.4445 8.33864 27.6195 8.40011 27.7727 8.50002C29.3757 9.40413 31.0914 10.0919 32.875 10.5455C33.1368 9.35132 32.9293 8.10219 32.2954 7.05684C31.5113 5.92047 29.9545 5.39775 27.6932 5.39775H27.5C26.196 5.19765 24.8645 5.49804 23.7727 6.23866C23.3928 6.60869 23.0929 7.05276 22.8916 7.54337C22.6903 8.03399 22.5918 8.56071 22.6023 9.09093Z" fill="#D8D8D8"/>
<path d="M13.875 26.2727C13.7254 26.2736 13.5772 26.2449 13.4387 26.1884C13.3003 26.1318 13.1744 26.0485 13.0682 25.9432L3.89772 16.7727C3.42517 16.3371 3.04547 15.8105 2.78142 15.2245C2.51737 14.6385 2.37439 14.0052 2.36107 13.3626C2.34775 12.72 2.46436 12.0813 2.70391 11.4849C2.94346 10.8885 3.301 10.3466 3.7551 9.8917C4.2092 9.43684 4.7505 9.07838 5.34652 8.83783C5.94255 8.59728 6.58102 8.47959 7.22364 8.49182C7.86625 8.50406 8.49978 8.64597 9.08622 8.90904C9.67265 9.1721 10.1999 9.55091 10.6364 10.0227L19.8068 19.1932C19.9133 19.2988 19.9979 19.4245 20.0556 19.563C20.1132 19.7015 20.1429 19.85 20.1429 20C20.1429 20.15 20.1132 20.2985 20.0556 20.437C19.9979 20.5755 19.9133 20.7012 19.8068 20.8068L14.6705 25.9432C14.4588 26.1531 14.1731 26.2715 13.875 26.2727ZM7.27272 10.9091C6.77907 10.9062 6.29571 11.0502 5.88411 11.3227C5.4725 11.5952 5.15125 11.984 4.96121 12.4396C4.77117 12.8953 4.72093 13.3971 4.81687 13.8813C4.91281 14.3656 5.1506 14.8104 5.5 15.1591L13.875 23.5341L17.3977 20L9.09091 11.6364C8.85317 11.3979 8.56933 11.2105 8.25673 11.0854C7.94412 10.9604 7.6093 10.9004 7.27272 10.9091Z" fill="#D8D8D8"/>
<path d="M42.7273 37.5C41.7829 37.5 40.8597 37.2198 40.0745 36.6948C39.2894 36.1699 38.6777 35.4238 38.3168 34.5511C37.9559 33.6783 37.8621 32.7181 38.0471 31.7919C38.2322 30.8658 38.6879 30.0154 39.3565 29.3484C40.0251 28.6814 40.8766 28.2277 41.8032 28.0448C42.7297 27.862 43.6897 27.9581 44.5616 28.3211C45.4335 28.6841 46.1781 29.2976 46.7012 30.0839C47.2243 30.8703 47.5023 31.7942 47.5 32.7386C47.497 34.0024 46.9929 35.2135 46.0981 36.1061C45.2034 36.9987 43.9911 37.5 42.7273 37.5ZM42.7273 30.2386C42.2329 30.2386 41.7495 30.3852 41.3384 30.6599C40.9273 30.9346 40.6068 31.3251 40.4176 31.7819C40.2284 32.2387 40.1789 32.7414 40.2753 33.2263C40.3718 33.7113 40.6099 34.1567 40.9595 34.5064C41.3092 34.856 41.7546 35.0941 42.2396 35.1906C42.7245 35.287 43.2272 35.2375 43.684 35.0483C44.1408 34.8591 44.5313 34.5387 44.806 34.1275C45.0807 33.7164 45.2273 33.2331 45.2273 32.7386C45.2154 32.0835 44.9468 31.4592 44.4792 31.0002C44.0116 30.5411 43.3825 30.284 42.7273 30.2841V30.2386Z" fill="#D8D8D8"/>
<path d="M20.4546 42.7387C20.1532 42.7387 19.8642 42.619 19.651 42.4059C19.4379 42.1927 19.3182 41.9037 19.3182 41.6023V30.7501L13.2046 26.0341C12.987 25.8436 12.8502 25.5772 12.8222 25.2893C12.7942 25.0014 12.877 24.7137 13.0538 24.4847C13.2305 24.2558 13.488 24.1029 13.7736 24.0571C14.0592 24.0114 14.3515 24.0764 14.5909 24.2387L21.1478 29.2841C21.2868 29.3912 21.3992 29.5289 21.4761 29.6867C21.5529 29.8444 21.5923 30.0178 21.5909 30.1932V41.5569C21.5971 41.7099 21.5722 41.8625 21.5178 42.0057C21.4635 42.1489 21.3807 42.2796 21.2746 42.3899C21.1685 42.5003 21.0411 42.5881 20.9002 42.648C20.7593 42.708 20.6077 42.7388 20.4546 42.7387Z" fill="#D8D8D8"/>
<path d="M45.3296 31.3637C45.1464 31.3634 44.966 31.3188 44.8037 31.2337C44.6415 31.1486 44.5022 31.0256 44.3978 30.8751C41.4091 26.5682 37.5796 21.6137 36.716 21.1137C36.4396 21.0391 36.1587 20.9822 35.8751 20.9432H18.8296C18.5282 20.9432 18.2392 20.8235 18.0261 20.6104C17.813 20.3973 17.6932 20.1083 17.6932 19.8069C17.6932 19.5055 17.813 19.2165 18.0261 19.0033C18.2392 18.7902 18.5282 18.6705 18.8296 18.6705H36.1023C36.5874 18.7322 37.0664 18.8348 37.5341 18.9773C39.1364 19.5342 43.7046 25.7955 46.2728 29.5682C46.4442 29.8155 46.5105 30.1206 46.4572 30.4167C46.404 30.7128 46.2355 30.9757 45.9887 31.1478C45.7969 31.2867 45.5664 31.3622 45.3296 31.3637Z" fill="#D8D8D8"/>
<path d="M35.9887 38.6363C35.6873 38.6363 35.3983 38.5166 35.1851 38.3035C34.972 38.0904 34.8523 37.8013 34.8523 37.5V30.1931C34.8512 29.984 34.9078 29.7786 35.0159 29.5995C35.1241 29.4205 35.2795 29.2748 35.4652 29.1784C35.6509 29.082 35.8595 29.0388 36.0682 29.0534C36.2768 29.0681 36.4774 29.14 36.6478 29.2613L39.7728 31.4545C40.0199 31.6293 40.1875 31.8951 40.2386 32.1935C40.2898 32.4918 40.2203 32.7983 40.0455 33.0454C39.8707 33.2926 39.6049 33.4601 39.3065 33.5113C39.0082 33.5624 38.7017 33.4929 38.4546 33.3181L37.1364 32.3863V37.5C37.1364 37.6502 37.1066 37.7989 37.0488 37.9375C36.991 38.0761 36.9063 38.2019 36.7996 38.3075C36.6928 38.4132 36.5662 38.4967 36.427 38.5531C36.2879 38.6095 36.1389 38.6378 35.9887 38.6363Z" fill="#D8D8D8"/>
</svg>
